<svg xmlns="http://www.w3.org/2000/svg" width="64" height="64" fill="none" viewBox="0 0 64 64">
  <g clip-path="url(#clip0)">
    <path fill="url(#paint0_linear)" d="M58.819 58.622c1.481 1.669.425 4.31-1.798 4.502-6.368.545-14.8.876-24.05.876-10.238 0-19.474-.405-26.017-1.057-2.196-.22-3.25-2.843-1.773-4.482l.034-.038c6.575-7.305 16.107-11.898 26.71-11.898 10.49 0 19.924 4.49 26.494 11.655.135.147.268.294.4.442z"/>
    <path fill="url(#paint1_linear)" d="M57.022 63.124c-6.368.545-14.8.876-24.05.876-1.559 0-3.093-.01-4.599-.028l-6.055-6.055c-.548-.417-.779-1.048-.675-1.645-1.963-1.936-3.153-4.427-3.17-7.143a35.791 35.791 0 0113.25-2.602c.067-.002.135-.002.203-.002 3.96 0 7.77.64 11.332 1.823a35.938 35.938 0 0115.56 10.275c1.483 1.668.426 4.31-1.796 4.501z"/>
    <path fill="url(#paint2_linear)" d="M58.42 58.18C51.863 51.03 42.46 46.547 32 46.525v17.473l.971.001c9.25 0 17.682-.33 24.05-.876 2.222-.19 3.279-2.833 1.797-4.501a37.184 37.184 0 00-.399-.442z"/>
    <path fill="url(#paint3_linear)" d="M32 60.28c-7.46 0-13.528-5.03-13.528-11.211 0-3.556 2.066-6.936 5.527-9.042.513-.312 1.208-.187 1.551.28.343.467.206 1.098-.308 1.41-2.882 1.754-4.534 4.433-4.534 7.352 0 5.06 5.065 9.177 11.292 9.177 6.226 0 11.292-4.117 11.292-9.177 0-2.919-1.653-5.598-4.535-7.351-.513-.313-.651-.944-.308-1.41.343-.468 1.038-.593 1.551-.28 3.461 2.105 5.528 5.485 5.528 9.041 0 6.181-6.069 11.21-13.528 11.21z"/>
    <path fill="url(#paint4_linear)" d="M32 57.736c-.926 0-1.676.683-1.676 1.526v4.736h3.354v-4.736c0-.843-.75-1.526-1.677-1.526z"/>
    <path fill="url(#paint5_linear)" d="M33.676 59.261c0-.842-.75-1.525-1.677-1.525-.926 0-1.677.683-1.677 1.526v1.686l3.354 3.05v-4.736z"/>
    <path fill="url(#paint6_linear)" d="M32 61.042c-3.593 0-7.032-1.11-9.683-3.126-.828-.63-.938-1.753-.245-2.507.693-.754 1.927-.853 2.756-.223 1.948 1.481 4.495 2.297 7.173 2.297 2.677 0 5.224-.816 7.172-2.297.829-.63 2.063-.53 2.756.223.693.754.583 1.877-.246 2.507-2.65 2.016-6.089 3.126-9.682 3.126z"/>
    <path fill="url(#paint7_linear)" d="M41.928 55.408a1.909 1.909 0 00-.421-.342c.065.57-.172 1.158-.69 1.553-2.651 2.016-6.09 3.126-9.684 3.126-3.513 0-6.878-1.062-9.503-2.993.055.438.286.858.687 1.163 2.65 2.016 6.089 3.126 9.683 3.126 3.593 0 7.032-1.11 9.683-3.126.828-.63.938-1.753.245-2.507z"/>
    <path fill="url(#paint8_linear)" d="M32 52.127c3.032 0 5.49-1.523 5.49-3.403 0-1.88-2.458-3.404-5.49-3.404s-5.49 1.524-5.49 3.404 2.458 3.403 5.49 3.403z"/>
    <path fill="url(#paint9_linear)" d="M20.057 44.008v2.562c0 .471.103.935.301 1.351l3.43 7.207c.448.942 1.509 1.28 2.335.744l5.878-3.811-11.944-8.053z"/>
    <path fill="url(#paint10_linear)" d="M43.946 44.008v2.562c0 .471-.103.935-.301 1.351l-3.43 7.207c-.448.942-1.509 1.28-2.335.744l-5.878-3.811 11.944-8.053z"/>
    <path fill="url(#paint11_linear)" d="M15.874 32.508a3.533 3.533 0 01-3.533-3.534v-2.1a3.533 3.533 0 017.066 0v2.1a3.533 3.533 0 01-3.533 3.534z"/>
    <path fill="url(#paint12_linear)" d="M48.13 32.508a3.533 3.533 0 01-3.533-3.534v-2.1a3.533 3.533 0 017.066 0v2.1a3.533 3.533 0 01-3.533 3.534z"/>
    <path fill="url(#paint13_linear)" d="M32 49.594c8.829 0 16.091-6.98 16.41-15.802.137-3.783.137-7.568 0-11.351C48.091 13.618 40.83 6.639 32 6.639c-8.828 0-16.09 6.98-16.41 15.802a157.015 157.015 0 000 11.35c.32 8.823 7.582 15.803 16.41 15.803z"/>
    <path fill="url(#paint14_linear)" d="M46.085 22.362c-.048-.039-.447-.475-.645-.602a1.642 1.642 0 00-1.012-.713 20.386 20.386 0 00-9.227 0 1.647 1.647 0 00-1.2 1.115 13.04 13.04 0 00-.294 1.115 3.188 3.188 0 00-2.667-.344l-1.226-1.173a1.642 1.642 0 00-1.012-.713 20.386 20.386 0 00-9.227 0 1.647 1.647 0 00-1.2 1.115c-.022.067-.04.133-.06.2h-2.72c0 .027-.002.053-.003.08v.014a153.495 153.495 0 00-.06 2.044v.003l2.277 1.976c.052 1.043.24 2.085.565 3.123.118.375.362.69.683.896l18.227 18.227c6.279-2.13 10.875-7.955 11.127-14.933.137-3.783.137-7.568 0-11.35 0-.027-.003-.053-.004-.08h-2.322z"/>
    <path fill="url(#paint15_linear)" d="M33.014 36.49H30.99c-1.623 0-2.887-1.197-2.713-2.568l1.058-8.365h5.335l1.058 8.365c.174 1.371-1.09 2.568-2.713 2.568z"/>
    <path fill="url(#paint16_linear)" d="M27.043 25.556a2.367 2.367 0 11-4.733 0 2.367 2.367 0 014.733 0z"/>
    <path fill="url(#paint17_linear)" d="M25.736 23.44a2.367 2.367 0 01-3.176 3.176 2.366 2.366 0 103.176-3.177z"/>
    <path fill="url(#paint18_linear)" d="M41.696 25.556a2.367 2.367 0 11-4.734 0 2.367 2.367 0 014.734 0z"/>
    <path fill="url(#paint19_linear)" d="M40.388 23.44a2.367 2.367 0 01-3.176 3.176 2.367 2.367 0 103.176-3.177z"/>
    <path fill="url(#paint20_linear)" d="M15.638 27.934l.304-4.536a7.28 7.28 0 013.646-5.815 6.81 6.81 0 013.356-.896h8.872c3.223 0 6.284-1.27 8.477-3.495l2.136 3.416c.512.818 1.23 1.5 2.082 1.975a5.962 5.962 0 013.029 4.816l.2 3.234c.037.605.541 1.098 1.125 1.098a.977.977 0 00.969-.836l1.449-8.636c.415-2.476.518-4.964.316-7.41-.301-3.649-3.886-6.33-7.503-5.698A20.021 20.021 0 0027.02.34l-5.304.99c-4.81.899-8.497 5.002-8.645 9.814l-.158 5.13a44.773 44.773 0 00.344 7.042l.613 4.81a.82.82 0 00.816.736c.49 0 .917-.416.95-.927z"/>
    <path fill="url(#paint21_linear)" d="M44.096 5.151A20.022 20.022 0 0027.02.34l-5.304.99c-4.81.899-8.497 5.002-8.645 9.814l-.158 5.13a44.773 44.773 0 00.344 7.042l.613 4.81a.82.82 0 00.816.736c.49 0 .917-.416.95-.927l.305-4.536a7.28 7.28 0 013.646-5.815 6.81 6.81 0 013.356-.897h8.872c3.223 0 6.284-1.269 8.477-3.494 0 0-1.361-5.635 3.803-8.04z"/>
    <path fill="url(#paint22_linear)" d="M18.922 24.502h-5.38a1.07 1.07 0 010-2.14h5.38v2.14z"/>
    <path fill="url(#paint23_linear)" d="M45.082 24.502h5.38a1.07 1.07 0 000-2.14h-5.38v2.14z"/>
    <path fill="url(#paint24_linear)" d="M30.493 25.123a1.74 1.74 0 013.016 0h1.579a3.208 3.208 0 00-6.174 0h1.579z"/>
    <path fill="url(#paint25_linear)" d="M29.162 29.064a1.41 1.41 0 01-1.027.954 17.438 17.438 0 01-7.894 0 1.41 1.41 0 01-1.027-.954 10.445 10.445 0 010-6.364 1.41 1.41 0 011.027-.954 17.438 17.438 0 017.894 0 1.41 1.41 0 011.027.954c.662 2.114.662 4.25 0 6.364z"/>
    <path fill="url(#paint26_linear)" d="M30.003 22.162a1.647 1.647 0 00-1.201-1.115 20.386 20.386 0 00-9.227 0 1.647 1.647 0 00-1.2 1.115 12.21 12.21 0 000 7.44c.174.558.63.984 1.2 1.115 3.064.705 6.163.705 9.227 0a1.647 1.647 0 001.2-1.115 12.21 12.21 0 000-7.44zm-1.597 6.418a1.195 1.195 0 01-.87.81 14.789 14.789 0 01-6.694 0 1.195 1.195 0 01-.871-.81 8.856 8.856 0 010-5.397c.127-.405.457-.714.87-.809a14.788 14.788 0 016.694 0c.414.095.744.404.871.81a8.856 8.856 0 010 5.396z"/>
    <path fill="url(#paint27_linear)" d="M44.788 29.064a1.41 1.41 0 01-1.027.954 17.438 17.438 0 01-7.894 0 1.409 1.409 0 01-1.027-.954 10.444 10.444 0 010-6.364c.15-.478.54-.842 1.027-.954a17.438 17.438 0 017.894 0 1.41 1.41 0 011.027.954c.662 2.114.662 4.25 0 6.364z"/>
    <path fill="url(#paint28_linear)" d="M45.628 22.162a1.647 1.647 0 00-1.2-1.115 20.387 20.387 0 00-9.227 0 1.647 1.647 0 00-1.2 1.115 12.21 12.21 0 000 7.44c.174.558.63.984 1.2 1.115 3.064.705 6.163.705 9.227 0a1.647 1.647 0 001.2-1.115 12.21 12.21 0 000-7.44zm-1.596 6.418a1.195 1.195 0 01-.87.81 14.789 14.789 0 01-6.694 0 1.195 1.195 0 01-.871-.81 8.858 8.858 0 010-5.397c.127-.405.457-.714.87-.809a14.789 14.789 0 016.694 0c.414.095.744.404.871.81a8.858 8.858 0 010 5.396z"/>
    <path fill="url(#paint29_linear)" d="M36.515 40.488l-.01-.001a.883.883 0 00-.732.247c-1.06 1.031-2.357 1.639-3.759 1.639-1.42 0-2.731-.622-3.798-1.676a.881.881 0 00-.724-.253c-.4.046-.591.695-.324 1.104l.072.109c1.184 1.758 2.884 2.86 4.774 2.86 1.911 0 3.63-1.127 4.814-2.92l.006-.009c.266-.403.076-1.046-.32-1.1z"/>
  </g>
  <defs>
    <linearGradient id="paint0_linear" x1="32.001" x2="32.001" y1="55.067" y2="64.313" gradientUnits="userSpaceOnUse">
      <stop stop-color="#EDF5FF"/>
      <stop offset="1" stop-color="#D5E8FE"/>
    </linearGradient>
    <linearGradient id="paint1_linear" x1="42.562" x2="30.934" y1="65.394" y2="32.599" gradientUnits="userSpaceOnUse">
      <stop stop-color="#07485E" stop-opacity="0"/>
      <stop offset=".271" stop-color="#074459" stop-opacity=".271"/>
      <stop offset=".597" stop-color="#05394A" stop-opacity=".597"/>
      <stop offset=".951" stop-color="#032632" stop-opacity=".951"/>
      <stop offset="1" stop-color="#03232E"/>
    </linearGradient>
    <linearGradient id="paint2_linear" x1="38.255" x2="19.933" y1="55.278" y2="40.721" gradientUnits="userSpaceOnUse">
      <stop stop-color="#07485E" stop-opacity="0"/>
      <stop offset=".271" stop-color="#074459" stop-opacity=".271"/>
      <stop offset=".597" stop-color="#05394A" stop-opacity=".597"/>
      <stop offset=".951" stop-color="#032632" stop-opacity=".951"/>
      <stop offset="1" stop-color="#03232E"/>
    </linearGradient>
    <linearGradient id="paint3_linear" x1="32" x2="32" y1="44.173" y2="58.966" gradientUnits="userSpaceOnUse">
      <stop stop-color="#CBD0E4"/>
      <stop offset="1" stop-color="#6A7D83"/>
    </linearGradient>
    <linearGradient id="paint4_linear" x1="29.526" x2="34.01" y1="58.283" y2="63.898" gradientUnits="userSpaceOnUse">
      <stop stop-color="#9AE1D3"/>
      <stop offset="1" stop-color="#80D1C1"/>
    </linearGradient>
    <linearGradient id="paint5_linear" x1="34.963" x2="30.885" y1="62.773" y2="58.695" gradientUnits="userSpaceOnUse">
      <stop stop-color="#0B799D" stop-opacity="0"/>
      <stop offset=".174" stop-color="#117D9E" stop-opacity=".174"/>
      <stop offset=".414" stop-color="#2389A0" stop-opacity=".414"/>
      <stop offset=".693" stop-color="#409CA3" stop-opacity=".693"/>
      <stop offset=".999" stop-color="#69B7A8" stop-opacity=".999"/>
      <stop offset="1" stop-color="#69B7A8"/>
    </linearGradient>
    <linearGradient id="paint6_linear" x1="32.001" x2="32.001" y1="54.772" y2="61.042" gradientUnits="userSpaceOnUse">
      <stop stop-color="#9AE1D3"/>
      <stop offset="1" stop-color="#80D1C1"/>
    </linearGradient>
    <linearGradient id="paint7_linear" x1="31.753" x2="43.711" y1="56.294" y2="68.697" gradientUnits="userSpaceOnUse">
      <stop stop-color="#0B799D" stop-opacity="0"/>
      <stop offset=".174" stop-color="#117D9E" stop-opacity=".174"/>
      <stop offset=".414" stop-color="#2389A0" stop-opacity=".414"/>
      <stop offset=".693" stop-color="#409CA3" stop-opacity=".693"/>
      <stop offset=".999" stop-color="#69B7A8" stop-opacity=".999"/>
      <stop offset="1" stop-color="#69B7A8"/>
    </linearGradient>
    <linearGradient id="paint8_linear" x1="32" x2="32" y1="47.157" y2="50.84" gradientUnits="userSpaceOnUse">
      <stop stop-color="#FCE9CB"/>
      <stop offset="1" stop-color="#FFBD95"/>
    </linearGradient>
    <linearGradient id="paint9_linear" x1="25.08" x2="27.607" y1="48.968" y2="53.13" gradientUnits="userSpaceOnUse">
      <stop stop-color="#EDF5FF"/>
      <stop offset="1" stop-color="#D5E8FE"/>
    </linearGradient>
    <linearGradient id="paint10_linear" x1="37.862" x2="42.636" y1="47.934" y2="52.209" gradientUnits="userSpaceOnUse">
      <stop stop-color="#EDF5FF"/>
      <stop offset="1" stop-color="#D5E8FE"/>
    </linearGradient>
    <linearGradient id="paint11_linear" x1="15.033" x2="18.395" y1="27.083" y2="30.445" gradientUnits="userSpaceOnUse">
      <stop stop-color="#FCE9CB"/>
      <stop offset="1" stop-color="#FFBD95"/>
    </linearGradient>
    <linearGradient id="paint12_linear" x1="47.289" x2="50.651" y1="27.083" y2="30.445" gradientUnits="userSpaceOnUse">
      <stop stop-color="#FCE9CB"/>
      <stop offset="1" stop-color="#FFBD95"/>
    </linearGradient>
    <linearGradient id="paint13_linear" x1="24.056" x2="38.315" y1="15.569" y2="38.088" gradientUnits="userSpaceOnUse">
      <stop stop-color="#FCE9CB"/>
      <stop offset="1" stop-color="#FFBD95"/>
    </linearGradient>
    <linearGradient id="paint14_linear" x1="34.59" x2="29.73" y1="42.023" y2="7.539" gradientUnits="userSpaceOnUse">
      <stop stop-color="#FAA68E" stop-opacity="0"/>
      <stop offset="1" stop-color="#C9766E"/>
    </linearGradient>
    <linearGradient id="paint15_linear" x1="32.002" x2="32.002" y1="27.432" y2="48.429" gradientUnits="userSpaceOnUse">
      <stop stop-color="#FAA68E" stop-opacity="0"/>
      <stop offset="1" stop-color="#C9766E"/>
    </linearGradient>
    <linearGradient id="paint16_linear" x1="23.791" x2="26.857" y1="24.671" y2="27.736" gradientUnits="userSpaceOnUse">
      <stop stop-color="#8A7889"/>
      <stop offset="1" stop-color="#6E566E"/>
    </linearGradient>
    <linearGradient id="paint17_linear" x1="24.759" x2="28.013" y1="26.464" y2="20.413" gradientUnits="userSpaceOnUse">
      <stop stop-color="#6E566E" stop-opacity="0"/>
      <stop offset=".047" stop-color="#6E566E" stop-opacity=".047"/>
      <stop offset="1" stop-color="#6E566E"/>
    </linearGradient>
    <linearGradient id="paint18_linear" x1="38.443" x2="41.509" y1="24.671" y2="27.736" gradientUnits="userSpaceOnUse">
      <stop stop-color="#8A7889"/>
      <stop offset="1" stop-color="#6E566E"/>
    </linearGradient>
    <linearGradient id="paint19_linear" x1="39.411" x2="42.665" y1="26.464" y2="20.413" gradientUnits="userSpaceOnUse">
      <stop stop-color="#6E566E" stop-opacity="0"/>
      <stop offset=".047" stop-color="#6E566E" stop-opacity=".047"/>
      <stop offset="1" stop-color="#6E566E"/>
    </linearGradient>
    <linearGradient id="paint20_linear" x1="27.705" x2="40.489" y1="14.188" y2="25.07" gradientUnits="userSpaceOnUse">
      <stop stop-color="#8A7889"/>
      <stop offset="1" stop-color="#6E566E"/>
    </linearGradient>
    <linearGradient id="paint21_linear" x1="24.498" x2="31.972" y1="9.117" y2="21.769" gradientUnits="userSpaceOnUse">
      <stop stop-color="#6E566E" stop-opacity="0"/>
      <stop offset=".294" stop-color="#674D66" stop-opacity=".294"/>
      <stop offset="1" stop-color="#593B56"/>
    </linearGradient>
    <linearGradient id="paint22_linear" x1="15.696" x2="15.696" y1="22.712" y2="23.805" gradientUnits="userSpaceOnUse">
      <stop stop-color="#8A7889"/>
      <stop offset="1" stop-color="#6E566E"/>
    </linearGradient>
    <linearGradient id="paint23_linear" x1="48.308" x2="48.308" y1="22.712" y2="23.805" gradientUnits="userSpaceOnUse">
      <stop stop-color="#8A7889"/>
      <stop offset="1" stop-color="#6E566E"/>
    </linearGradient>
    <linearGradient id="paint24_linear" x1="32.001" x2="32.001" y1="23.168" y2="24.361" gradientUnits="userSpaceOnUse">
      <stop stop-color="#8A7889"/>
      <stop offset="1" stop-color="#6E566E"/>
    </linearGradient>
    <linearGradient id="paint25_linear" x1="25.294" x2="22.401" y1="28.866" y2="21.055" gradientUnits="userSpaceOnUse">
      <stop stop-color="#fff" stop-opacity="0"/>
      <stop offset="1" stop-color="#fff"/>
    </linearGradient>
    <linearGradient id="paint26_linear" x1="20.946" x2="27.632" y1="22.639" y2="29.325" gradientUnits="userSpaceOnUse">
      <stop stop-color="#8A7889"/>
      <stop offset="1" stop-color="#6E566E"/>
    </linearGradient>
    <linearGradient id="paint27_linear" x1="40.92" x2="38.027" y1="28.866" y2="21.055" gradientUnits="userSpaceOnUse">
      <stop stop-color="#fff" stop-opacity="0"/>
      <stop offset="1" stop-color="#fff"/>
    </linearGradient>
    <linearGradient id="paint28_linear" x1="36.572" x2="43.257" y1="22.639" y2="29.325" gradientUnits="userSpaceOnUse">
      <stop stop-color="#8A7889"/>
      <stop offset="1" stop-color="#6E566E"/>
    </linearGradient>
    <linearGradient id="paint29_linear" x1="32.001" x2="32.001" y1="44.055" y2="40.312" gradientUnits="userSpaceOnUse">
      <stop stop-color="#FF9690"/>
      <stop offset="1" stop-color="#F9545B"/>
    </linearGradient>
    <clipPath id="clip0">
      <path fill="#fff" d="M0 0h64v64H0z"/>
    </clipPath>
  </defs>
</svg>