<svg xmlns="http://www.w3.org/2000/svg" width="64" height="64" fill="none" viewBox="0 0 64 64">
  <path fill="url(#paint0_linear)" d="M59.664 5H5.014A2.015 2.015 0 003 7.015V60.17c0 1.113.902 2.015 2.015 2.015h54.65a2.015 2.015 0 002.014-2.015V7.015A2.015 2.015 0 0059.664 5zm-7.978 24.55a2.838 2.838 0 01-2.088.913 2.838 2.838 0 01-2.088-.913 2.847 2.847 0 114.177 0zm-39.453-1.935a2.847 2.847 0 115.695 0 2.847 2.847 0 01-5.695 0zm40.212-9.135a2.847 2.847 0 11-5.695 0 2.847 2.847 0 015.695 0zm-37.364-2.848a2.848 2.848 0 110 5.695 2.848 2.848 0 010-5.695z"/>
  <path fill="url(#paint1_linear)" d="M15.08 23.361a4.254 4.254 0 100 8.509 4.254 4.254 0 000-8.509zm0 7.102a2.847 2.847 0 110-5.695 2.847 2.847 0 010 5.695z"/>
  <path fill="url(#paint2_linear)" d="M49.616 23.361a4.254 4.254 0 100 8.509 4.254 4.254 0 000-8.509zm0 7.102a2.847 2.847 0 110-5.695 2.847 2.847 0 010 5.695z"/>
  <path fill="url(#paint3_linear)" d="M61.679 22.754v6.796h-9.993a2.847 2.847 0 10-4.177 0H17.17a2.848 2.848 0 10-4.177 0H3v-6.796h58.679z"/>
  <path fill="url(#paint4_linear)" d="M17.217 29.497a2.83 2.83 0 00.712-1.883c0-.868-.389-1.646-1.002-2.167v-4.8l2.106 2.106 6.744 6.744h-8.56z"/>
  <path fill="url(#paint5_linear)" d="M51.767 29.497a2.83 2.83 0 00.712-1.883c0-.868-.39-1.646-1.002-2.167v-4.8l2.106 2.106 6.744 6.744h-8.56z"/>
  <path fill="url(#paint6_linear)" d="M59.664 5H5.014A2.015 2.015 0 003 7.015v15.739h58.679V7.014A2.015 2.015 0 0059.664 5zM15.081 21.327a2.847 2.847 0 110-5.695 2.847 2.847 0 010 5.695zm34.517 0a2.847 2.847 0 110-5.695 2.847 2.847 0 010 5.695z"/>
  <path fill="#BED3E1" d="M15.08 14.225a4.254 4.254 0 10-.001 8.508 4.254 4.254 0 000-8.508zm0 7.102a2.847 2.847 0 110-5.695 2.847 2.847 0 010 5.695z"/>
  <path fill="url(#paint7_linear)" d="M49.616 14.225a4.254 4.254 0 100 8.508 4.254 4.254 0 000-8.508zm0 7.102a2.847 2.847 0 110-5.695 2.847 2.847 0 010 5.695z"/>
  <path fill="url(#paint8_linear)" d="M15.064 27.616a1.862 1.862 0 01-1.862-1.862v-6a1.862 1.862 0 113.725 0v6a1.862 1.862 0 01-1.863 1.862z"/>
  <path fill="url(#paint9_linear)" d="M49.614 27.616a1.862 1.862 0 01-1.862-1.862v-6a1.862 1.862 0 113.724 0v6a1.862 1.862 0 01-1.862 1.862z"/>
  <path fill="#D9E7F8" d="M3 52.145v8.026c0 1.112.902 2.014 2.015 2.014h54.65a2.015 2.015 0 002.014-2.014v-8.026H3z"/>
  <path fill="url(#paint10_linear)" d="M17.96 33.41a1.242 1.242 0 00-.906-.841 15.372 15.372 0 00-6.959 0c-.43.099-.773.42-.905.84a9.209 9.209 0 000 5.612c.132.421.475.742.905.841 2.311.532 4.648.532 6.96 0 .43-.099.773-.42.905-.84a9.209 9.209 0 000-5.612z"/>
  <path fill="url(#paint11_linear)" d="M30.47 33.41a1.242 1.242 0 00-.906-.841 15.372 15.372 0 00-6.96 0c-.43.099-.773.42-.904.84a9.209 9.209 0 000 5.612c.131.421.475.742.905.841 2.31.532 4.648.532 6.96 0 .43-.099.773-.42.905-.84a9.21 9.21 0 000-5.612z"/>
  <path fill="url(#paint12_linear)" d="M42.98 33.41a1.242 1.242 0 00-.906-.841 15.372 15.372 0 00-6.96 0c-.43.099-.773.42-.905.84a9.209 9.209 0 000 5.612c.132.421.476.742.906.841 2.31.532 4.648.532 6.959 0 .43-.099.773-.42.905-.84a9.209 9.209 0 000-5.612z"/>
  <path fill="url(#paint13_linear)" d="M55.488 33.41a1.242 1.242 0 00-.905-.841 15.372 15.372 0 00-6.96 0c-.43.099-.773.42-.905.84a9.209 9.209 0 000 5.612c.132.421.475.742.905.841 2.311.532 4.649.532 6.96 0 .43-.099.773-.42.905-.84a9.208 9.208 0 000-5.612z"/>
  <path fill="url(#paint14_linear)" d="M17.96 43.168a1.242 1.242 0 00-.906-.841 15.375 15.375 0 00-6.959 0c-.43.099-.773.42-.905.84a9.209 9.209 0 000 5.612c.132.421.475.742.905.841 2.311.532 4.648.532 6.96 0 .43-.099.773-.42.905-.841a9.209 9.209 0 000-5.611z"/>
  <path fill="url(#paint15_linear)" d="M30.47 43.168a1.242 1.242 0 00-.906-.841 15.375 15.375 0 00-6.96 0c-.43.099-.773.42-.904.84a9.209 9.209 0 000 5.612c.131.421.475.742.905.841 2.31.532 4.648.532 6.96 0 .43-.099.773-.42.905-.841a9.21 9.21 0 000-5.611z"/>
  <path fill="url(#paint16_linear)" d="M42.98 43.168a1.242 1.242 0 00-.906-.841 15.375 15.375 0 00-6.96 0c-.43.099-.773.42-.905.84a9.209 9.209 0 000 5.612c.132.421.476.742.906.841 2.31.532 4.648.532 6.959 0 .43-.099.773-.42.905-.841a9.209 9.209 0 000-5.611z"/>
  <path fill="url(#paint17_linear)" d="M55.488 43.168a1.242 1.242 0 00-.905-.841 15.375 15.375 0 00-6.96 0c-.43.099-.773.42-.905.84a9.209 9.209 0 000 5.612c.132.421.475.742.905.841 2.311.532 4.649.532 6.96 0 .43-.099.773-.42.905-.841a9.208 9.208 0 000-5.611z"/>
  <path fill="url(#paint18_linear)" d="M17.96 52.924a1.242 1.242 0 00-.906-.841 15.375 15.375 0 00-6.959 0c-.43.099-.773.42-.905.84a9.209 9.209 0 000 5.612c.132.421.475.742.905.84 2.311.533 4.648.533 6.96 0 .43-.098.773-.42.905-.84a9.209 9.209 0 000-5.611z"/>
  <path fill="url(#paint19_linear)" d="M30.47 52.924a1.242 1.242 0 00-.906-.841 15.375 15.375 0 00-6.96 0c-.43.099-.773.42-.904.84a9.209 9.209 0 000 5.612c.131.421.475.742.905.84 2.31.533 4.648.533 6.96 0 .43-.098.773-.42.905-.84a9.21 9.21 0 000-5.611z"/>
  <path fill="url(#paint20_linear)" d="M42.98 52.924a1.242 1.242 0 00-.906-.841 15.375 15.375 0 00-6.96 0c-.43.099-.773.42-.905.84a9.209 9.209 0 000 5.612c.132.421.476.742.906.84 2.31.533 4.648.533 6.959 0 .43-.098.773-.42.905-.84a9.209 9.209 0 000-5.611z"/>
  <path fill="url(#paint21_linear)" d="M55.488 52.924a1.242 1.242 0 00-.905-.841 15.375 15.375 0 00-6.96 0c-.43.099-.773.42-.905.84a9.209 9.209 0 000 5.612c.132.421.475.742.905.84 2.311.533 4.649.533 6.96 0 .43-.098.773-.42.905-.84a9.208 9.208 0 000-5.611z"/>
  <defs>
    <linearGradient id="paint0_linear" x1="27.852" x2="51.798" y1="22.239" y2="82.822" gradientUnits="userSpaceOnUse">
      <stop stop-color="#EDF5FF"/>
      <stop offset="1" stop-color="#D5E8FE"/>
    </linearGradient>
    <linearGradient id="paint1_linear" x1="19.185" x2="11.544" y1="31.721" y2="24.08" gradientUnits="userSpaceOnUse">
      <stop stop-color="#EDF5FF"/>
      <stop offset="1" stop-color="#D5E8FE"/>
    </linearGradient>
    <linearGradient id="paint2_linear" x1="53.721" x2="46.08" y1="31.721" y2="24.08" gradientUnits="userSpaceOnUse">
      <stop stop-color="#EDF5FF"/>
      <stop offset="1" stop-color="#D5E8FE"/>
    </linearGradient>
    <linearGradient id="paint3_linear" x1="32.339" x2="32.339" y1="27.495" y2="16.428" gradientUnits="userSpaceOnUse">
      <stop stop-color="#84D5F1" stop-opacity="0"/>
      <stop offset=".271" stop-color="#4590AA" stop-opacity=".271"/>
      <stop offset=".597" stop-color="#4595AF" stop-opacity=".597"/>
      <stop offset=".951" stop-color="#519EB9" stop-opacity=".951"/>
      <stop offset="1" stop-color="#6BABC0"/>
    </linearGradient>
    <linearGradient id="paint4_linear" x1="19.454" x2="12.243" y1="27.41" y2="20.047" gradientUnits="userSpaceOnUse">
      <stop stop-color="#07485E" stop-opacity="0"/>
      <stop offset=".271" stop-color="#074459" stop-opacity=".271"/>
      <stop offset=".597" stop-color="#05394A" stop-opacity=".597"/>
      <stop offset=".951" stop-color="#032632" stop-opacity=".951"/>
      <stop offset="1" stop-color="#03232E"/>
    </linearGradient>
    <linearGradient id="paint5_linear" x1="54.912" x2="47.165" y1="28.232" y2="20.792" gradientUnits="userSpaceOnUse">
      <stop stop-color="#07485E" stop-opacity="0"/>
      <stop offset=".271" stop-color="#074459" stop-opacity=".271"/>
      <stop offset=".597" stop-color="#05394A" stop-opacity=".597"/>
      <stop offset=".951" stop-color="#032632" stop-opacity=".951"/>
      <stop offset="1" stop-color="#03232E"/>
    </linearGradient>
    <linearGradient id="paint6_linear" x1="29.669" x2="35.576" y1="6.574" y2="24.6" gradientUnits="userSpaceOnUse">
      <stop stop-color="#D9E7F8"/>
      <stop offset="1" stop-color="#E6F1FF"/>
    </linearGradient>
    <linearGradient id="paint7_linear" x1="53.721" x2="46.08" y1="22.584" y2="14.944" gradientUnits="userSpaceOnUse">
      <stop stop-color="#ABC4D3"/>
      <stop offset="1" stop-color="#C0D4E2"/>
    </linearGradient>
    <linearGradient id="paint8_linear" x1="13.202" x2="16.927" y1="22.754" y2="22.754" gradientUnits="userSpaceOnUse">
      <stop stop-color="#FFDA2D"/>
      <stop offset="1" stop-color="#FDBF00"/>
    </linearGradient>
    <linearGradient id="paint9_linear" x1="47.752" x2="51.476" y1="22.754" y2="22.754" gradientUnits="userSpaceOnUse">
      <stop stop-color="#FFDA2D"/>
      <stop offset="1" stop-color="#FDBF00"/>
    </linearGradient>
    <linearGradient id="paint10_linear" x1="11.129" x2="16.172" y1="33.77" y2="38.812" gradientUnits="userSpaceOnUse">
      <stop stop-color="#90D1FF"/>
      <stop offset="1" stop-color="#5992FB"/>
    </linearGradient>
    <linearGradient id="paint11_linear" x1="23.639" x2="28.681" y1="33.77" y2="38.812" gradientUnits="userSpaceOnUse">
      <stop stop-color="#90D1FF"/>
      <stop offset="1" stop-color="#5992FB"/>
    </linearGradient>
    <linearGradient id="paint12_linear" x1="36.149" x2="41.191" y1="33.77" y2="38.812" gradientUnits="userSpaceOnUse">
      <stop stop-color="#90D1FF"/>
      <stop offset="1" stop-color="#5992FB"/>
    </linearGradient>
    <linearGradient id="paint13_linear" x1="48.658" x2="53.7" y1="33.77" y2="38.812" gradientUnits="userSpaceOnUse">
      <stop stop-color="#90D1FF"/>
      <stop offset="1" stop-color="#5992FB"/>
    </linearGradient>
    <linearGradient id="paint14_linear" x1="11.129" x2="16.172" y1="43.528" y2="48.57" gradientUnits="userSpaceOnUse">
      <stop stop-color="#90D0FF"/>
      <stop offset="1" stop-color="#548CF9"/>
    </linearGradient>
    <linearGradient id="paint15_linear" x1="23.639" x2="28.681" y1="43.528" y2="48.57" gradientUnits="userSpaceOnUse">
      <stop stop-color="#90D0FF"/>
      <stop offset="1" stop-color="#548CF9"/>
    </linearGradient>
    <linearGradient id="paint16_linear" x1="36.149" x2="41.191" y1="43.528" y2="48.57" gradientUnits="userSpaceOnUse">
      <stop stop-color="#FFD322"/>
      <stop offset="1" stop-color="#E4B413"/>
    </linearGradient>
    <linearGradient id="paint17_linear" x1="48.658" x2="53.7" y1="43.528" y2="48.57" gradientUnits="userSpaceOnUse">
      <stop stop-color="#90D1FF"/>
      <stop offset="1" stop-color="#568FFA"/>
    </linearGradient>
    <linearGradient id="paint18_linear" x1="11.129" x2="16.172" y1="53.284" y2="58.326" gradientUnits="userSpaceOnUse">
      <stop stop-color="#90D0FF"/>
      <stop offset="1" stop-color="#548CF9"/>
    </linearGradient>
    <linearGradient id="paint19_linear" x1="23.639" x2="28.681" y1="53.284" y2="58.326" gradientUnits="userSpaceOnUse">
      <stop stop-color="#90D0FF"/>
      <stop offset="1" stop-color="#548CF9"/>
    </linearGradient>
    <linearGradient id="paint20_linear" x1="36.149" x2="41.191" y1="53.284" y2="58.326" gradientUnits="userSpaceOnUse">
      <stop stop-color="#90D0FF"/>
      <stop offset="1" stop-color="#548CF9"/>
    </linearGradient>
    <linearGradient id="paint21_linear" x1="48.658" x2="53.7" y1="53.284" y2="58.326" gradientUnits="userSpaceOnUse">
      <stop stop-color="#90D1FF"/>
      <stop offset="1" stop-color="#568FFA"/>
    </linearGradient>
  </defs>
</svg>