<svg width="64" height="64" viewBox="0 0 64 64" fill="none" xmlns="http://www.w3.org/2000/svg">
<g clip-path="url(#clip0)">
<path d="M58.8185 58.6224C60.3003 60.2905 59.2437 62.9329 57.0206 63.1235C50.6527 63.6692 42.2214 63.9998 32.9716 63.9998C22.7326 63.9998 13.4971 63.5946 6.95367 62.9425C4.75759 62.7237 3.7041 60.1003 5.18125 58.4605C5.19242 58.4482 5.20346 58.4358 5.21463 58.4235C11.7902 51.1178 21.3221 46.5254 31.9257 46.5254C42.4154 46.5254 51.849 51.0144 58.4193 58.1802C58.5536 58.3265 58.6866 58.4738 58.8185 58.6224Z" fill="url(#paint0_linear)"/>
<path d="M57.0215 63.124C50.6536 63.669 42.2224 63.9999 32.9719 63.9999C31.4132 63.9999 29.8788 63.9906 28.3733 63.9722L22.3178 57.9166C21.7704 57.5 21.539 56.8694 21.6431 56.2723C19.6795 54.3364 18.4898 51.845 18.4736 49.1291C22.57 47.4731 27.0402 46.552 31.7221 46.5265C31.7904 46.5254 31.8575 46.5254 31.9258 46.5254C35.8868 46.5254 39.6963 47.1653 43.2579 48.3479C49.1306 50.2966 54.3298 53.7195 58.4192 58.1804C58.5534 58.3262 58.6865 58.4743 58.8184 58.6225C60.3009 60.2912 59.2444 62.933 57.0215 63.124Z" fill="url(#paint1_linear)"/>
<path d="M58.4191 58.1797C51.8643 51.031 42.4599 46.5467 32 46.5254V63.998C32.3228 63.9988 32.6464 63.9993 32.9713 63.9993C42.2212 63.9993 50.6525 63.6687 57.0205 63.1228C59.2435 62.9323 60.3 60.2899 58.8184 58.6218C58.6864 58.4733 58.5534 58.326 58.4191 58.1797Z" fill="url(#paint2_linear)"/>
<path d="M31.9998 60.2793C24.5404 60.2793 18.4717 55.2504 18.4717 49.069C18.4717 45.5128 20.538 42.1328 23.9993 40.0273C24.5122 39.7152 25.2067 39.8403 25.5502 40.3071C25.8934 40.7739 25.7556 41.4054 25.2424 41.7176C22.3605 43.4707 20.7077 46.1501 20.7077 49.069C20.7077 54.129 25.7733 58.2457 31.9996 58.2457C38.226 58.2457 43.2916 54.1291 43.2916 49.069C43.2916 46.1501 41.6388 43.4707 38.757 41.7176C38.2438 41.4054 38.106 40.7739 38.4492 40.3071C38.7924 39.8403 39.4869 39.7149 40.0002 40.0273C43.4613 42.1326 45.5277 45.5127 45.5277 49.069C45.5279 55.2504 39.4592 60.2793 31.9998 60.2793Z" fill="url(#paint3_linear)"/>
<path d="M32.0005 57.7363C31.0744 57.7363 30.3242 58.4194 30.3242 59.2615V63.9982H33.6776V59.2617C33.6776 58.4194 32.9274 57.7363 32.0005 57.7363Z" fill="url(#paint4_linear)"/>
<path d="M33.6764 59.2615C33.6764 58.4192 32.9256 57.7363 31.9993 57.7363C31.0731 57.7363 30.3223 58.4192 30.3223 59.2615V60.9477L33.6764 63.9982V59.2615Z" fill="url(#paint5_linear)"/>
<path d="M32.0005 61.0423C28.4068 61.0423 24.968 59.9319 22.3175 57.9159C21.4887 57.2855 21.3788 56.1632 22.072 55.4094C22.7652 54.6554 23.9992 54.5555 24.8281 55.186C26.7757 56.6674 29.3229 57.4834 32.0005 57.4834C34.6781 57.4834 37.2253 56.6674 39.1729 55.186C40.0016 54.5555 41.2356 54.6554 41.9289 55.4094C42.6221 56.1632 42.5122 57.2855 41.6833 57.9159C39.0331 59.9319 35.5943 61.0423 32.0005 61.0423Z" fill="url(#paint6_linear)"/>
<path d="M41.9282 55.4085C41.8034 55.2728 41.6607 55.1593 41.5065 55.0664C41.5721 55.6358 41.3352 56.2237 40.8161 56.6186C38.1657 58.6346 34.7269 59.7449 31.1331 59.7449C27.6199 59.7449 24.2551 58.6833 21.6299 56.7521C21.6848 57.1898 21.9159 57.6101 22.3167 57.915C24.967 59.931 28.4058 61.0414 31.9996 61.0414C35.5934 61.0414 39.0321 59.931 41.6826 57.915C42.5114 57.2846 42.6214 56.1623 41.9282 55.4085Z" fill="url(#paint7_linear)"/>
<path d="M32 52.1274C35.0321 52.1274 37.4902 50.6036 37.4902 48.7239C37.4902 46.8441 35.0321 45.3203 32 45.3203C28.9678 45.3203 26.5098 46.8441 26.5098 48.7239C26.5098 50.6036 28.9678 52.1274 32 52.1274Z" fill="url(#paint8_linear)"/>
<path d="M20.0566 44.0078V46.5703C20.0566 47.0413 20.1602 47.505 20.3582 47.921L23.7882 55.1284C24.2363 56.07 25.2967 56.4077 26.1232 55.8718L32.0011 52.0608L20.0566 44.0078Z" fill="url(#paint9_linear)"/>
<path d="M43.9464 44.0078V46.5703C43.9464 47.0413 43.8428 47.505 43.6448 47.921L40.2148 55.1284C39.7667 56.07 38.7063 56.4077 37.8798 55.8718L32.002 52.0608L43.9464 44.0078Z" fill="url(#paint10_linear)"/>
<path d="M15.8741 32.5078C13.9227 32.5078 12.3408 30.9259 12.3408 28.9745V26.8731C12.3408 24.9218 13.9227 23.3398 15.8741 23.3398C17.8255 23.3398 19.4074 24.9218 19.4074 26.8731V28.9745C19.4074 30.9259 17.8255 32.5078 15.8741 32.5078Z" fill="url(#paint11_linear)"/>
<path d="M48.13 32.5078C46.1786 32.5078 44.5967 30.9259 44.5967 28.9745V26.8731C44.5967 24.9218 46.1786 23.3398 48.13 23.3398C50.0814 23.3398 51.6633 24.9218 51.6633 26.8731V28.9745C51.6633 30.9259 50.0814 32.5078 48.13 32.5078Z" fill="url(#paint12_linear)"/>
<path d="M32.0006 49.5938C40.8288 49.5938 48.0913 42.6141 48.4103 33.7916C48.5471 30.009 48.5471 26.2237 48.4103 22.441C48.0913 13.6184 40.8288 6.63867 32.0006 6.63867C23.1724 6.63867 15.9099 13.6184 15.5909 22.4409C15.4541 26.2236 15.4541 30.0088 15.5909 33.7915C15.9099 42.6141 23.1724 49.5938 32.0006 49.5938Z" fill="url(#paint13_linear)"/>
<path d="M46.0846 22.3623C46.0368 22.3233 45.6377 21.8869 45.4402 21.7597C45.2112 21.4039 44.8515 21.144 44.4282 21.0465C41.3643 20.3413 38.2649 20.3413 35.2011 21.0465C34.631 21.1778 34.1756 21.6034 34.0006 22.1618C33.8844 22.5328 33.7878 22.9047 33.7065 23.2767C33.2125 22.9655 32.6285 22.7843 32.0016 22.7843C31.6661 22.7843 31.3436 22.8376 31.0401 22.9335L29.8139 21.7597C29.585 21.4039 29.2252 21.144 28.8019 21.0465C25.738 20.3413 22.6386 20.3413 19.5748 21.0465C19.0047 21.1778 18.5491 21.6034 18.3743 22.1618C18.3534 22.2285 18.3353 22.2954 18.3155 22.3623H15.5956C15.5945 22.3888 15.5927 22.415 15.5917 22.4415C15.5916 22.4465 15.5915 22.4514 15.5912 22.4564C15.578 22.8212 15.5672 23.1861 15.5566 23.5511C15.5478 23.8672 15.5396 24.1833 15.5324 24.4995C15.5324 24.5008 15.5324 24.5019 15.5322 24.503L17.8095 26.4792C17.8615 27.5221 18.0492 28.5641 18.3742 29.6016C18.4917 29.9766 18.7362 30.2914 19.0567 30.4977L37.2839 48.7249C43.5626 46.5941 48.1589 40.7699 48.4112 33.7921C48.548 30.0094 48.548 26.2241 48.4112 22.4415C48.4102 22.415 48.4084 22.3888 48.4073 22.3623H46.0846Z" fill="url(#paint14_linear)"/>
<path d="M33.0141 36.4895H30.9892C29.3665 36.4895 28.1022 35.2931 28.2757 33.9217L29.3344 25.5566H34.6687L35.7273 33.9217C35.9011 35.2931 34.6368 36.4895 33.0141 36.4895Z" fill="url(#paint15_linear)"/>
<path d="M27.0434 25.5565C27.0434 26.8637 25.9837 27.9234 24.6764 27.9234C23.3692 27.9234 22.3096 26.8637 22.3096 25.5565C22.3096 24.2492 23.3693 23.1895 24.6764 23.1895C25.9838 23.1895 27.0434 24.2492 27.0434 25.5565Z" fill="url(#paint16_linear)"/>
<path d="M25.7357 23.4395C25.8954 23.7581 25.9853 24.1176 25.9853 24.4982C25.9853 25.8054 24.9256 26.8652 23.6183 26.8652C23.2377 26.8652 22.8781 26.7752 22.5596 26.6156C22.9482 27.3913 23.7502 27.9237 24.6768 27.9237C25.9841 27.9237 27.0438 26.864 27.0438 25.5567C27.0438 24.6302 26.5114 23.8281 25.7357 23.4395Z" fill="url(#paint17_linear)"/>
<path d="M41.6958 25.5565C41.6958 26.8637 40.636 27.9234 39.3288 27.9234C38.0216 27.9234 36.9619 26.8637 36.9619 25.5565C36.9619 24.2492 38.0216 23.1895 39.3288 23.1895C40.6362 23.1895 41.6958 24.2492 41.6958 25.5565Z" fill="url(#paint18_linear)"/>
<path d="M40.3881 23.4395C40.5477 23.7581 40.6377 24.1176 40.6377 24.4982C40.6377 25.8054 39.5779 26.8652 38.2707 26.8652C37.8901 26.8652 37.5304 26.7752 37.2119 26.6156C37.6006 27.3913 38.4026 27.9237 39.3292 27.9237C40.6364 27.9237 41.6962 26.864 41.6962 25.5567C41.6962 24.6302 41.1637 23.8281 40.3881 23.4395Z" fill="url(#paint19_linear)"/>
<path d="M15.6377 27.9337L15.9418 23.3983C16.1045 20.9712 17.4979 18.7686 19.5879 17.5831C20.6242 16.9953 21.7812 16.6866 22.9439 16.6866H31.8158C35.0394 16.6866 38.1003 15.4175 40.2927 13.1918L42.4294 16.6081C42.9411 17.4264 43.6594 18.1086 44.511 18.5828C46.2554 19.554 47.4152 21.3847 47.5397 23.3992L47.7396 26.6328C47.777 27.2379 48.2811 27.7307 48.8654 27.7307C49.3518 27.7307 49.7515 27.3853 49.8337 26.8954L51.2828 18.2587C51.6982 15.7832 51.8012 13.2949 51.5992 10.8495C51.2976 7.20012 47.7131 4.51815 44.0955 5.15112C39.4629 0.963888 33.1219 -0.800378 27.0208 0.339073L21.7166 1.32969C16.9078 2.22783 13.2196 6.3311 13.0718 11.1432L12.9142 16.2739C12.8429 18.5958 12.9559 20.95 13.2577 23.3151L13.8712 28.1241C13.9259 28.5532 14.2661 28.8611 14.6865 28.8611C15.1775 28.8612 15.6035 28.4451 15.6377 27.9337Z" fill="url(#paint20_linear)"/>
<path d="M44.0957 5.15112C39.4629 0.963888 33.1219 -0.800378 27.0208 0.339073L21.7166 1.32969C16.9078 2.22783 13.2196 6.3311 13.0718 11.1432L12.9142 16.2739C12.8429 18.5958 12.9559 20.95 13.2577 23.3151L13.8712 28.1241C13.9259 28.5532 14.2661 28.8611 14.6866 28.8611C15.1777 28.8611 15.6036 28.445 15.6378 27.9336L15.9419 23.3981C16.1047 20.971 17.498 18.7684 19.588 17.5829C20.6243 16.9951 21.7813 16.6864 22.944 16.6864H31.8159C35.0395 16.6864 38.1005 15.4173 40.2928 13.1917C40.2925 13.1919 38.9317 7.55652 44.0957 5.15112Z" fill="url(#paint21_linear)"/>
<path d="M18.922 24.5022H13.5411C12.95 24.5022 12.4707 24.0229 12.4707 23.4318C12.4707 22.8406 12.95 22.3613 13.5411 22.3613H18.922V24.5022Z" fill="url(#paint22_linear)"/>
<path d="M45.082 24.5022H50.4629C51.0541 24.5022 51.5334 24.0229 51.5334 23.4318C51.5334 22.8406 51.0541 22.3613 50.4629 22.3613H45.082V24.5022Z" fill="url(#paint23_linear)"/>
<path d="M30.4927 25.1232C30.7938 24.6018 31.3557 24.25 32.001 24.25C32.6463 24.25 33.2082 24.6018 33.5093 25.1232H35.0877C34.7087 23.7744 33.4707 22.7852 32.0009 22.7852C30.531 22.7852 29.293 23.7744 28.9141 25.1232H30.4927Z" fill="url(#paint24_linear)"/>
<path d="M29.1621 29.0643C29.0125 29.5419 28.6229 29.9061 28.1352 30.0184C25.514 30.6218 22.8626 30.6218 20.2414 30.0184C19.7536 29.9061 19.364 29.5419 19.2144 29.0643C18.5523 26.9502 18.5522 24.8138 19.2144 22.6996C19.364 22.222 19.7536 21.8578 20.2413 21.7455C22.8624 21.1421 25.5139 21.1421 28.1351 21.7455C28.6229 21.8578 29.0125 22.222 29.1621 22.6996C29.8243 24.814 29.8242 26.9503 29.1621 29.0643Z" fill="url(#paint25_linear)"/>
<path d="M30.0025 22.1618C29.8277 21.6034 29.3721 21.1778 28.802 21.0465C25.7381 20.3413 22.6387 20.3413 19.5749 21.0465C19.0048 21.1778 18.5493 21.6034 18.3744 22.1618C17.6004 24.6332 17.6005 27.1304 18.3744 29.6017C18.5492 30.16 19.0048 30.5857 19.5749 30.7169C22.6388 31.4222 25.7381 31.4222 28.802 30.7169C29.3721 30.5857 29.8275 30.16 30.0025 29.6017C30.7765 27.1305 30.7765 24.6333 30.0025 22.1618ZM28.4062 28.5803C28.2794 28.9853 27.9489 29.2941 27.5355 29.3894C25.3126 29.901 23.0644 29.901 20.8417 29.3894C20.4281 29.2941 20.0976 28.9854 19.9708 28.5803C19.4093 26.7876 19.4092 24.976 19.9708 23.1831C20.0976 22.7782 20.4281 22.4693 20.8416 22.3741C23.0642 21.8625 25.3126 21.8625 27.5353 22.3741C27.9489 22.4693 28.2794 22.778 28.4062 23.1831C28.9678 24.976 28.9677 26.7876 28.4062 28.5803Z" fill="url(#paint26_linear)"/>
<path d="M44.7881 29.0643C44.6385 29.5419 44.2489 29.9061 43.7612 30.0184C41.14 30.6218 38.4886 30.6218 35.8674 30.0184C35.3796 29.9061 34.9899 29.5419 34.8404 29.0643C34.1783 26.9502 34.1781 24.8138 34.8404 22.6996C34.9899 22.222 35.3796 21.8578 35.8673 21.7455C38.4884 21.1421 41.1399 21.1421 43.7611 21.7455C44.2489 21.8578 44.6385 22.222 44.7881 22.6996C45.4503 24.814 45.4503 26.9503 44.7881 29.0643Z" fill="url(#paint27_linear)"/>
<path d="M45.6284 22.1618C45.4536 21.6034 44.9981 21.1778 44.428 21.0465C41.364 20.3413 38.2647 20.3413 35.2008 21.0465C34.6307 21.1778 34.1753 21.6034 34.0004 22.1618C33.2264 24.6332 33.2265 27.1304 34.0004 29.6017C34.1752 30.16 34.6307 30.5857 35.2008 30.7169C38.2648 31.4222 41.364 31.4222 44.428 30.7169C44.9981 30.5857 45.4535 30.16 45.6284 29.6017C46.4023 27.1305 46.4025 24.6333 45.6284 22.1618ZM44.0321 28.5803C43.9052 28.9853 43.5748 29.2941 43.1613 29.3894C40.9385 29.901 38.6902 29.901 36.4675 29.3894C36.0539 29.2941 35.7235 28.9854 35.5966 28.5803C35.0352 26.7876 35.0351 24.976 35.5966 23.1831C35.7235 22.7782 36.0539 22.4693 36.4674 22.3741C38.6901 21.8625 40.9385 21.8625 43.1612 22.3741C43.5748 22.4693 43.9052 22.778 44.0321 23.1831C44.5936 24.976 44.5935 26.7876 44.0321 28.5803Z" fill="url(#paint28_linear)"/>
<path d="M36.5147 40.488C36.5114 40.4875 36.508 40.4871 36.5046 40.4866C36.2359 40.4504 35.9675 40.5453 35.7732 40.7342C34.7135 41.7653 33.4163 42.3728 32.0144 42.3728C30.5949 42.3728 29.283 41.7508 28.2161 40.6966C28.0257 40.5085 27.7621 40.4122 27.4961 40.4432C27.4948 40.4434 27.4934 40.4436 27.4919 40.4437C27.0913 40.4905 26.9008 41.1389 27.1679 41.5483C27.1916 41.5847 27.2157 41.621 27.2398 41.6568C28.4239 43.4153 30.1239 44.517 32.0143 44.517C33.9253 44.517 35.6431 43.39 36.8281 41.5971C36.8301 41.5941 36.8321 41.5911 36.8341 41.5881C37.1004 41.1855 36.9105 40.5417 36.5147 40.488Z" fill="url(#paint29_linear)"/>
</g>
<defs>
<linearGradient id="paint0_linear" x1="32.0006" y1="55.0668" x2="32.0006" y2="64.3129" gradientUnits="userSpaceOnUse">
<stop stop-color="#EDF5FF"/>
<stop offset="1" stop-color="#D5E8FE"/>
</linearGradient>
<linearGradient id="paint1_linear" x1="42.5624" y1="65.3937" x2="30.9337" y2="32.599" gradientUnits="userSpaceOnUse">
<stop stop-color="#07485E" stop-opacity="0"/>
<stop offset="0.2708" stop-color="#074459" stop-opacity="0.271"/>
<stop offset="0.597" stop-color="#05394A" stop-opacity="0.597"/>
<stop offset="0.9505" stop-color="#032632" stop-opacity="0.951"/>
<stop offset="1" stop-color="#03232E"/>
</linearGradient>
<linearGradient id="paint2_linear" x1="38.2551" y1="55.2782" x2="19.9335" y2="40.7213" gradientUnits="userSpaceOnUse">
<stop stop-color="#07485E" stop-opacity="0"/>
<stop offset="0.2708" stop-color="#074459" stop-opacity="0.271"/>
<stop offset="0.597" stop-color="#05394A" stop-opacity="0.597"/>
<stop offset="0.9505" stop-color="#032632" stop-opacity="0.951"/>
<stop offset="1" stop-color="#03232E"/>
</linearGradient>
<linearGradient id="paint3_linear" x1="31.9998" y1="44.1729" x2="31.9998" y2="58.9658" gradientUnits="userSpaceOnUse">
<stop stop-color="#CBD0E4"/>
<stop offset="1" stop-color="#6A7D83"/>
</linearGradient>
<linearGradient id="paint4_linear" x1="29.5265" y1="58.2831" x2="34.0096" y2="63.8975" gradientUnits="userSpaceOnUse">
<stop stop-color="#9AE1D3"/>
<stop offset="1" stop-color="#80D1C1"/>
</linearGradient>
<linearGradient id="paint5_linear" x1="34.9626" y1="62.7731" x2="30.8846" y2="58.6949" gradientUnits="userSpaceOnUse">
<stop stop-color="#0B799D" stop-opacity="0"/>
<stop offset="0.1739" stop-color="#117D9E" stop-opacity="0.174"/>
<stop offset="0.414" stop-color="#2389A0" stop-opacity="0.414"/>
<stop offset="0.6928" stop-color="#409CA3" stop-opacity="0.693"/>
<stop offset="0.9986" stop-color="#69B7A8" stop-opacity="0.999"/>
<stop offset="1" stop-color="#69B7A8"/>
</linearGradient>
<linearGradient id="paint6_linear" x1="32.0005" y1="54.7715" x2="32.0005" y2="61.0423" gradientUnits="userSpaceOnUse">
<stop stop-color="#9AE1D3"/>
<stop offset="1" stop-color="#80D1C1"/>
</linearGradient>
<linearGradient id="paint7_linear" x1="31.7529" y1="56.2943" x2="43.7109" y2="68.6973" gradientUnits="userSpaceOnUse">
<stop stop-color="#0B799D" stop-opacity="0"/>
<stop offset="0.1739" stop-color="#117D9E" stop-opacity="0.174"/>
<stop offset="0.414" stop-color="#2389A0" stop-opacity="0.414"/>
<stop offset="0.6928" stop-color="#409CA3" stop-opacity="0.693"/>
<stop offset="0.9986" stop-color="#69B7A8" stop-opacity="0.999"/>
<stop offset="1" stop-color="#69B7A8"/>
</linearGradient>
<linearGradient id="paint8_linear" x1="32" y1="47.1574" x2="32" y2="50.8401" gradientUnits="userSpaceOnUse">
<stop stop-color="#FCE9CB"/>
<stop offset="1" stop-color="#FFBD95"/>
</linearGradient>
<linearGradient id="paint9_linear" x1="25.0799" y1="48.9682" x2="27.6066" y2="53.1299" gradientUnits="userSpaceOnUse">
<stop stop-color="#EDF5FF"/>
<stop offset="1" stop-color="#D5E8FE"/>
</linearGradient>
<linearGradient id="paint10_linear" x1="37.862" y1="47.9338" x2="42.636" y2="52.209" gradientUnits="userSpaceOnUse">
<stop stop-color="#EDF5FF"/>
<stop offset="1" stop-color="#D5E8FE"/>
</linearGradient>
<linearGradient id="paint11_linear" x1="15.0331" y1="27.0828" x2="18.3951" y2="30.4448" gradientUnits="userSpaceOnUse">
<stop stop-color="#FCE9CB"/>
<stop offset="1" stop-color="#FFBD95"/>
</linearGradient>
<linearGradient id="paint12_linear" x1="47.2889" y1="27.0828" x2="50.651" y2="30.4449" gradientUnits="userSpaceOnUse">
<stop stop-color="#FCE9CB"/>
<stop offset="1" stop-color="#FFBD95"/>
</linearGradient>
<linearGradient id="paint13_linear" x1="24.0557" y1="15.5689" x2="38.3148" y2="38.0881" gradientUnits="userSpaceOnUse">
<stop stop-color="#FCE9CB"/>
<stop offset="1" stop-color="#FFBD95"/>
</linearGradient>
<linearGradient id="paint14_linear" x1="34.5899" y1="42.0226" x2="29.7297" y2="7.53888" gradientUnits="userSpaceOnUse">
<stop stop-color="#FAA68E" stop-opacity="0"/>
<stop offset="1" stop-color="#C9766E"/>
</linearGradient>
<linearGradient id="paint15_linear" x1="32.0016" y1="27.4322" x2="32.0016" y2="48.4288" gradientUnits="userSpaceOnUse">
<stop stop-color="#FAA68E" stop-opacity="0"/>
<stop offset="1" stop-color="#C9766E"/>
</linearGradient>
<linearGradient id="paint16_linear" x1="23.791" y1="24.6709" x2="26.8566" y2="27.7365" gradientUnits="userSpaceOnUse">
<stop stop-color="#8A7889"/>
<stop offset="1" stop-color="#6E566E"/>
</linearGradient>
<linearGradient id="paint17_linear" x1="24.7592" y1="26.464" x2="28.0126" y2="20.4129" gradientUnits="userSpaceOnUse">
<stop stop-color="#6E566E" stop-opacity="0"/>
<stop offset="0.0471" stop-color="#6E566E" stop-opacity="0.047"/>
<stop offset="1" stop-color="#6E566E"/>
</linearGradient>
<linearGradient id="paint18_linear" x1="38.4433" y1="24.6709" x2="41.5089" y2="27.7365" gradientUnits="userSpaceOnUse">
<stop stop-color="#8A7889"/>
<stop offset="1" stop-color="#6E566E"/>
</linearGradient>
<linearGradient id="paint19_linear" x1="39.4115" y1="26.464" x2="42.6651" y2="20.4129" gradientUnits="userSpaceOnUse">
<stop stop-color="#6E566E" stop-opacity="0"/>
<stop offset="0.0471" stop-color="#6E566E" stop-opacity="0.047"/>
<stop offset="1" stop-color="#6E566E"/>
</linearGradient>
<linearGradient id="paint20_linear" x1="27.7054" y1="14.1875" x2="40.4893" y2="25.0702" gradientUnits="userSpaceOnUse">
<stop stop-color="#8A7889"/>
<stop offset="1" stop-color="#6E566E"/>
</linearGradient>
<linearGradient id="paint21_linear" x1="24.4983" y1="9.11661" x2="31.972" y2="21.7694" gradientUnits="userSpaceOnUse">
<stop stop-color="#6E566E" stop-opacity="0"/>
<stop offset="0.2944" stop-color="#674D66" stop-opacity="0.294"/>
<stop offset="1" stop-color="#593B56"/>
</linearGradient>
<linearGradient id="paint22_linear" x1="15.6964" y1="22.7118" x2="15.6964" y2="23.8045" gradientUnits="userSpaceOnUse">
<stop stop-color="#8A7889"/>
<stop offset="1" stop-color="#6E566E"/>
</linearGradient>
<linearGradient id="paint23_linear" x1="48.3076" y1="22.7118" x2="48.3076" y2="23.8045" gradientUnits="userSpaceOnUse">
<stop stop-color="#8A7889"/>
<stop offset="1" stop-color="#6E566E"/>
</linearGradient>
<linearGradient id="paint24_linear" x1="32.001" y1="23.1678" x2="32.001" y2="24.3611" gradientUnits="userSpaceOnUse">
<stop stop-color="#8A7889"/>
<stop offset="1" stop-color="#6E566E"/>
</linearGradient>
<linearGradient id="paint25_linear" x1="25.2935" y1="28.8662" x2="22.4006" y2="21.0553" gradientUnits="userSpaceOnUse">
<stop stop-color="white" stop-opacity="0"/>
<stop offset="1" stop-color="white"/>
</linearGradient>
<linearGradient id="paint26_linear" x1="20.946" y1="22.6392" x2="27.6316" y2="29.3249" gradientUnits="userSpaceOnUse">
<stop stop-color="#8A7889"/>
<stop offset="1" stop-color="#6E566E"/>
</linearGradient>
<linearGradient id="paint27_linear" x1="40.9196" y1="28.8662" x2="38.0267" y2="21.0553" gradientUnits="userSpaceOnUse">
<stop stop-color="white" stop-opacity="0"/>
<stop offset="1" stop-color="white"/>
</linearGradient>
<linearGradient id="paint28_linear" x1="36.5718" y1="22.6392" x2="43.2574" y2="29.3249" gradientUnits="userSpaceOnUse">
<stop stop-color="#8A7889"/>
<stop offset="1" stop-color="#6E566E"/>
</linearGradient>
<linearGradient id="paint29_linear" x1="32.0009" y1="44.055" x2="32.0009" y2="40.3121" gradientUnits="userSpaceOnUse">
<stop stop-color="#FF9690"/>
<stop offset="1" stop-color="#F9545B"/>
</linearGradient>
<clipPath id="clip0">
<rect width="64" height="64" fill="white"/>
</clipPath>
</defs>
</svg>
