<svg xmlns="http://www.w3.org/2000/svg" width="64" height="64" fill="none" viewBox="0 0 64 64">
  <g clip-path="url(#clip0)">
    <path fill="url(#paint0_linear)" d="M52.045 62.418h-40.09a3.763 3.763 0 01-3.764-3.763V25.788c0-1.248.619-2.414 1.651-3.115L29.887 9.077a3.763 3.763 0 014.225 0l20.045 13.596a3.763 3.763 0 011.65 3.115v32.867a3.763 3.763 0 01-3.762 3.763z"/>
    <path fill="url(#paint1_linear)" d="M55.807 25.788v32.867a3.763 3.763 0 01-3.763 3.763h-9.216L8.191 27.782v-1.994c0-1.248.62-2.414 1.65-3.115L29.887 9.076a3.763 3.763 0 014.224 0l20.047 13.597a3.768 3.768 0 011.65 3.115z"/>
    <path fill="url(#paint2_linear)" d="M25.49 3.502L2.495 18.353c-3.327 2.149-3.327 7.014 0 9.162a5.453 5.453 0 005.917 0l21.323-13.771a4.175 4.175 0 014.531 0l21.322 13.771a5.453 5.453 0 005.917 0c3.327-2.148 3.327-7.013 0-9.161L38.512 3.502a12 12 0 00-13.022 0z"/>
    <path fill="url(#paint3_linear)" d="M61.505 24.652L38.512 9.801a12 12 0 00-13.022 0L2.495 24.652a5.45 5.45 0 00-1.5 1.432 5.454 5.454 0 001.5 1.431 5.454 5.454 0 005.917 0l21.323-13.771a4.176 4.176 0 014.531 0l21.322 13.771a5.454 5.454 0 005.917 0 5.453 5.453 0 001.5-1.431 5.448 5.448 0 00-1.5-1.432z"/>
    <path fill="url(#paint4_linear)" fill-opacity=".2" d="M36.651 33.085c-.86-1.096-3.209-1.877-3.499-1.81l-1.756-.125a4.64 4.64 0 00-4.493 3.48l-1.758 6.821a1.35 1.35 0 00.836 1.602s1.719 1.865 1.82 1.982v10.851c0 .586.367 1.083.883 1.28l5.252 5.253h18.11a3.763 3.763 0 003.762-3.763v-6.723L36.651 33.085z"/>
    <path fill="url(#paint5_linear)" d="M55.809 38.951l-19-19c-1.14-1.365-2.854-2.021-4.772-2.021-3.432 0-6.108 2.674-6.108 6.106 0 1.918.764 3.524 2.128 4.664l27.752 27.752v-17.5z"/>
    <path fill="url(#paint6_linear)" d="M38.215 23.931A6.213 6.213 0 0132 30.144a6.213 6.213 0 116.214-6.213z"/>
    <path fill="url(#paint7_linear)" d="M34.78 18.373a6.213 6.213 0 01-8.338 8.337 6.213 6.213 0 108.338-8.337z"/>
    <path fill="url(#paint8_linear)" d="M39.129 41.452l-1.758-6.819a4.64 4.64 0 00-4.493-3.48h-1.756a4.64 4.64 0 00-4.492 3.48l-1.758 6.819a1.35 1.35 0 001.306 1.686c.745 0 1.35.604 1.35 1.35v11.4c0 .756.613 1.37 1.37 1.37h6.205a1.37 1.37 0 001.37-1.37v-11.4c0-.746.604-1.35 1.35-1.35a1.35 1.35 0 001.306-1.686z"/>
    <path fill="url(#paint9_linear)" d="M37.37 34.633a4.64 4.64 0 00-4.492-3.48H32v26.105h3.103a1.37 1.37 0 001.37-1.37v-11.4c0-.746.604-1.35 1.35-1.35a1.35 1.35 0 001.306-1.686l-1.758-6.819z"/>
  </g>
  <defs>
    <linearGradient id="paint0_linear" x1="23.324" x2="48.101" y1="33.545" y2="58.322" gradientUnits="userSpaceOnUse">
      <stop stop-color="#EDF5FF"/>
      <stop offset="1" stop-color="#D5E8FE"/>
    </linearGradient>
    <linearGradient id="paint1_linear" x1="35.103" x2="19.104" y1="33.205" y2="-1.993" gradientUnits="userSpaceOnUse">
      <stop stop-color="#71AABD" stop-opacity="0"/>
      <stop offset="0" stop-color="#EDF5FF"/>
      <stop offset=".271" stop-color="#EDF5FF"/>
      <stop offset=".597" stop-color="#5D9DB1" stop-opacity=".597"/>
      <stop offset=".951" stop-color="#4389A2" stop-opacity=".951"/>
      <stop offset="1" stop-color="#6CBDD9"/>
    </linearGradient>
    <linearGradient id="paint2_linear" x1="24.888" x2="45.198" y1="15.823" y2="36.132" gradientUnits="userSpaceOnUse">
      <stop stop-color="#4DA2F0"/>
      <stop offset="1" stop-color="#5992FB"/>
    </linearGradient>
    <linearGradient id="paint3_linear" x1="32" x2="32" y1="26.067" y2="-12.267" gradientUnits="userSpaceOnUse">
      <stop stop-color="#0B799D" stop-opacity="0"/>
      <stop offset=".174" stop-color="#117D9E" stop-opacity=".174"/>
      <stop offset=".414" stop-color="#2389A0" stop-opacity=".414"/>
      <stop offset=".693" stop-color="#409CA3" stop-opacity=".693"/>
      <stop offset=".999" stop-color="#69B7A8" stop-opacity=".999"/>
      <stop offset="1" stop-color="#69B7A8"/>
    </linearGradient>
    <linearGradient id="paint4_linear" x1="45.373" x2="12.946" y1="53.55" y2="34.492" gradientUnits="userSpaceOnUse">
      <stop stop-color="#07485E" stop-opacity="0"/>
      <stop offset=".271" stop-color="#074459" stop-opacity=".271"/>
      <stop offset=".597" stop-color="#05394A" stop-opacity=".597"/>
      <stop offset=".951" stop-color="#032632" stop-opacity=".951"/>
      <stop offset="1" stop-color="#03232E"/>
    </linearGradient>
    <linearGradient id="paint5_linear" x1="43.881" x2="23.496" y1="35.776" y2="15.392" gradientUnits="userSpaceOnUse">
      <stop stop-color="#579DB5" stop-opacity="0"/>
      <stop offset=".271" stop-color="#8BC2D6" stop-opacity=".271"/>
      <stop offset=".597" stop-color="#05394A" stop-opacity=".597"/>
      <stop offset=".951" stop-color="#448398" stop-opacity=".951"/>
      <stop offset="1" stop-color="#53A5C1"/>
    </linearGradient>
    <linearGradient id="paint6_linear" x1="29.676" x2="37.724" y1="21.607" y2="29.654" gradientUnits="userSpaceOnUse">
      <stop stop-color="#FFDA2D"/>
      <stop offset="1" stop-color="#FDBF00"/>
    </linearGradient>
    <linearGradient id="paint7_linear" x1="32.217" x2="40.757" y1="26.312" y2="10.428" gradientUnits="userSpaceOnUse">
      <stop stop-color="#FF9100" stop-opacity="0"/>
      <stop offset="1" stop-color="#FF9100"/>
    </linearGradient>
    <linearGradient id="paint8_linear" x1="24.828" x2="39.172" y1="44.205" y2="44.205" gradientUnits="userSpaceOnUse">
      <stop stop-color="#FFDA2D"/>
      <stop offset="1" stop-color="#FDBF00"/>
    </linearGradient>
    <linearGradient id="paint9_linear" x1="36.334" x2="19.835" y1="46.35" y2="35.247" gradientUnits="userSpaceOnUse">
      <stop stop-color="#FF9100" stop-opacity="0"/>
      <stop offset="1" stop-color="#FF9100"/>
    </linearGradient>
    <clipPath id="clip0">
      <path fill="#fff" d="M0 0h64v64H0z"/>
    </clipPath>
  </defs>
</svg>