<svg width="64" height="64" viewBox="0 0 64 64" fill="none" xmlns="http://www.w3.org/2000/svg">
<path d="M59.6641 5H5.01464C3.90204 5 3 5.90204 3 7.01464V60.1712C3 61.2838 3.90204 62.1859 5.01464 62.1859H59.6641C60.7767 62.1859 61.6787 61.2838 61.6787 60.1712V7.01464C61.6787 5.90204 60.7767 5 59.6641 5ZM51.6861 29.5503C51.166 30.1117 50.4228 30.4627 49.5978 30.4627C48.7729 30.4627 48.0296 30.1117 47.5095 29.5503C47.0378 29.0429 46.7502 28.3617 46.7502 27.615C46.7502 26.0422 48.025 24.7674 49.5978 24.7674C51.1706 24.7674 52.4454 26.0422 52.4454 27.615C52.4454 28.3617 52.1578 29.0429 51.6861 29.5503ZM12.2333 27.615C12.2333 26.0422 13.5081 24.7674 15.0809 24.7674C16.6537 24.7674 17.9286 26.0422 17.9286 27.615C17.9286 28.3617 17.6409 29.0429 17.1692 29.5503C16.6491 30.1117 15.9059 30.4627 15.0809 30.4627C14.256 30.4627 13.5127 30.1117 12.9926 29.5503C12.5209 29.0429 12.2333 28.3617 12.2333 27.615ZM52.4454 18.4795C52.4454 20.0524 51.1706 21.3272 49.5978 21.3272C48.025 21.3272 46.7502 20.0524 46.7502 18.4795C46.7502 16.9067 48.025 15.6319 49.5978 15.6319C51.1706 15.6319 52.4454 16.9067 52.4454 18.4795ZM15.0809 15.6319C16.6537 15.6319 17.9286 16.9067 17.9286 18.4795C17.9286 20.0524 16.6537 21.3272 15.0809 21.3272C13.5081 21.3272 12.2333 20.0524 12.2333 18.4795C12.2333 16.9067 13.5081 15.6319 15.0809 15.6319Z" fill="url(#paint0_linear)"/>
<path d="M15.0795 23.3613C12.7297 23.3613 10.8252 25.2659 10.8252 27.6157C10.8252 29.9654 12.7297 31.87 15.0795 31.87C17.4292 31.87 19.3338 29.9654 19.3338 27.6157C19.3338 25.2659 17.4292 23.3613 15.0795 23.3613ZM15.0795 30.4633C13.5067 30.4633 12.2319 29.1885 12.2319 27.6157C12.2319 26.0428 13.5067 24.768 15.0795 24.768C16.6523 24.768 17.9272 26.0428 17.9272 27.6157C17.9272 29.1885 16.6523 30.4633 15.0795 30.4633Z" fill="url(#paint1_linear)"/>
<path d="M49.6157 23.3613C47.2659 23.3613 45.3613 25.2659 45.3613 27.6157C45.3613 29.9654 47.2659 31.87 49.6157 31.87C51.9653 31.87 53.87 29.9654 53.87 27.6157C53.87 25.2659 51.9654 23.3613 49.6157 23.3613ZM49.6157 30.4633C48.0428 30.4633 46.768 29.1885 46.768 27.6157C46.768 26.0428 48.0428 24.768 49.6157 24.768C51.1885 24.768 52.4633 26.0428 52.4633 27.6157C52.4633 29.1885 51.1885 30.4633 49.6157 30.4633Z" fill="url(#paint2_linear)"/>
<path d="M61.6787 22.7539V29.5503H51.6861C52.1578 29.0429 52.4454 28.3617 52.4454 27.615C52.4454 26.0422 51.1706 24.7674 49.5978 24.7674C48.025 24.7674 46.7502 26.0422 46.7502 27.615C46.7502 28.3617 47.0378 29.0429 47.5095 29.5503H17.1692C17.6409 29.0429 17.9286 28.3617 17.9286 27.615C17.9286 26.0422 16.6537 24.7674 15.0809 24.7674C13.5081 24.7674 12.2333 26.0422 12.2333 27.615C12.2333 28.3617 12.5209 29.0429 12.9926 29.5503H3V22.7539H61.6787Z" fill="url(#paint3_linear)"/>
<path d="M17.2167 29.4966C17.6608 28.995 17.9289 28.3357 17.9289 27.6143C17.9289 26.7456 17.54 25.9678 16.9268 25.4466V20.6465L19.0334 22.7532L25.7769 29.4966H17.2167Z" fill="url(#paint4_linear)"/>
<path d="M51.7665 29.4966C52.2106 28.995 52.4787 28.3357 52.4787 27.6143C52.4787 26.7456 52.0898 25.9678 51.4766 25.4466V20.6465L53.5832 22.7532L60.3267 29.4966H51.7665Z" fill="url(#paint5_linear)"/>
<path d="M59.6641 5H5.01464C3.90204 5 3 5.90204 3 7.01464V22.7538H61.6787V7.01464C61.6787 5.90204 60.7767 5 59.6641 5ZM15.0809 21.3272C13.5081 21.3272 12.2333 20.0524 12.2333 18.4795C12.2333 16.9067 13.5081 15.6319 15.0809 15.6319C16.6537 15.6319 17.9286 16.9067 17.9286 18.4795C17.9286 20.0524 16.6537 21.3272 15.0809 21.3272ZM49.5978 21.3272C48.025 21.3272 46.7502 20.0524 46.7502 18.4795C46.7502 16.9067 48.025 15.6319 49.5978 15.6319C51.1706 15.6319 52.4454 16.9067 52.4454 18.4795C52.4454 20.0524 51.1706 21.3272 49.5978 21.3272Z" fill="url(#paint6_linear)"/>
<path d="M15.0795 14.2246C12.7297 14.2246 10.8252 16.1291 10.8252 18.4789C10.8252 20.8287 12.7297 22.7333 15.0795 22.7333C17.4292 22.7333 19.3338 20.8287 19.3338 18.4789C19.3338 16.1291 17.4292 14.2246 15.0795 14.2246ZM15.0795 21.3266C13.5067 21.3266 12.2319 20.0518 12.2319 18.4789C12.2319 16.9061 13.5067 15.6313 15.0795 15.6313C16.6523 15.6313 17.9272 16.9061 17.9272 18.4789C17.9272 20.0518 16.6523 21.3266 15.0795 21.3266Z" fill="#BED3E1"/>
<path d="M49.6157 14.2246C47.2659 14.2246 45.3613 16.1291 45.3613 18.4789C45.3613 20.8287 47.2659 22.7333 49.6157 22.7333C51.9653 22.7333 53.87 20.8287 53.87 18.4789C53.87 16.1291 51.9654 14.2246 49.6157 14.2246ZM49.6157 21.3266C48.0428 21.3266 46.768 20.0518 46.768 18.4789C46.768 16.9061 48.0428 15.6313 49.6157 15.6313C51.1885 15.6313 52.4633 16.9061 52.4633 18.4789C52.4633 20.0518 51.1885 21.3266 49.6157 21.3266Z" fill="url(#paint7_linear)"/>
<path d="M15.0643 27.6159C14.0358 27.6159 13.2021 26.7822 13.2021 25.7537V19.7548C13.2021 18.7263 14.0358 17.8926 15.0643 17.8926C16.0928 17.8926 16.9265 18.7263 16.9265 19.7548V25.7537C16.9265 26.7821 16.0928 27.6159 15.0643 27.6159Z" fill="url(#paint8_linear)"/>
<path d="M49.6141 27.6159C48.5856 27.6159 47.752 26.7822 47.752 25.7537V19.7548C47.752 18.7263 48.5856 17.8926 49.6141 17.8926C50.6426 17.8926 51.4763 18.7263 51.4763 19.7548V25.7537C51.4763 26.7821 50.6426 27.6159 49.6141 27.6159Z" fill="url(#paint9_linear)"/>
<path d="M3 52.1445V60.1708C3 61.2834 3.90204 62.1855 5.01464 62.1855H59.6641C60.7767 62.1855 61.6787 61.2834 61.6787 60.1708V52.1445H3Z" fill="#D9E7F8"/>
<path d="M17.9598 33.4099C17.828 32.9888 17.4844 32.6678 17.0544 32.5689C14.7435 32.0369 12.4059 32.0369 10.0951 32.5689C9.66517 32.6678 9.32161 32.9889 9.18976 33.4099C8.60596 35.2739 8.60608 37.1574 9.18976 39.0212C9.32161 39.4423 9.66517 39.7633 10.0951 39.8623C12.406 40.3942 14.7435 40.3942 17.0544 39.8623C17.4844 39.7633 17.828 39.4422 17.9598 39.0212C18.5435 37.1574 18.5436 35.2739 17.9598 33.4099Z" fill="url(#paint10_linear)"/>
<path d="M30.4696 33.4099C30.3377 32.9888 29.9942 32.6678 29.5642 32.5689C27.2533 32.0369 24.9157 32.0369 22.6049 32.5689C22.1749 32.6678 21.8314 32.9889 21.6995 33.4099C21.1157 35.2739 21.1158 37.1574 21.6995 39.0212C21.8314 39.4423 22.1749 39.7633 22.6049 39.8623C24.9158 40.3942 27.2533 40.3942 29.5642 39.8623C29.9942 39.7633 30.3377 39.4422 30.4696 39.0212C31.0532 37.1574 31.0534 35.2739 30.4696 33.4099Z" fill="url(#paint11_linear)"/>
<path d="M42.9793 33.4099C42.8475 32.9888 42.5039 32.6678 42.074 32.5689C39.7631 32.0369 37.4255 32.0369 35.1147 32.5689C34.6847 32.6678 34.3411 32.9889 34.2093 33.4099C33.6255 35.2739 33.6256 37.1574 34.2093 39.0212C34.3411 39.4423 34.6847 39.7633 35.1147 39.8623C37.4256 40.3942 39.7631 40.3942 42.074 39.8623C42.5039 39.7633 42.8475 39.4422 42.9793 39.0212C43.563 37.1574 43.5631 35.2739 42.9793 33.4099Z" fill="url(#paint12_linear)"/>
<path d="M55.4881 33.4099C55.3563 32.9888 55.0127 32.6678 54.5828 32.5689C52.2718 32.0369 49.9342 32.0369 47.6235 32.5689C47.1935 32.6678 46.8499 32.9889 46.7181 33.4099C46.1343 35.2739 46.1344 37.1574 46.7181 39.0212C46.8499 39.4423 47.1935 39.7633 47.6235 39.8623C49.9344 40.3942 52.2718 40.3942 54.5828 39.8623C55.0127 39.7633 55.3563 39.4422 55.4881 39.0212C56.0719 37.1574 56.0719 35.2739 55.4881 33.4099Z" fill="url(#paint13_linear)"/>
<path d="M17.9598 43.1677C17.828 42.7466 17.4844 42.4256 17.0544 42.3267C14.7435 41.7948 12.4059 41.7948 10.0951 42.3267C9.66517 42.4256 9.32161 42.7467 9.18976 43.1677C8.60596 45.0317 8.60608 46.9152 9.18976 48.779C9.32161 49.2001 9.66517 49.5211 10.0951 49.6201C12.406 50.152 14.7435 50.152 17.0544 49.6201C17.4844 49.5211 17.828 49.2 17.9598 48.779C18.5435 46.9152 18.5436 45.0317 17.9598 43.1677Z" fill="url(#paint14_linear)"/>
<path d="M30.4696 43.1677C30.3377 42.7466 29.9942 42.4256 29.5642 42.3267C27.2533 41.7948 24.9157 41.7948 22.6049 42.3267C22.1749 42.4256 21.8314 42.7467 21.6995 43.1677C21.1157 45.0317 21.1158 46.9152 21.6995 48.779C21.8314 49.2001 22.1749 49.5211 22.6049 49.6201C24.9158 50.152 27.2533 50.152 29.5642 49.6201C29.9942 49.5211 30.3377 49.2 30.4696 48.779C31.0532 46.9152 31.0534 45.0317 30.4696 43.1677Z" fill="url(#paint15_linear)"/>
<path d="M42.9793 43.1677C42.8475 42.7466 42.5039 42.4256 42.074 42.3267C39.7631 41.7948 37.4255 41.7948 35.1147 42.3267C34.6847 42.4256 34.3411 42.7467 34.2093 43.1677C33.6255 45.0317 33.6256 46.9152 34.2093 48.779C34.3411 49.2001 34.6847 49.5211 35.1147 49.6201C37.4256 50.152 39.7631 50.152 42.074 49.6201C42.5039 49.5211 42.8475 49.2 42.9793 48.779C43.563 46.9152 43.5631 45.0317 42.9793 43.1677Z" fill="url(#paint16_linear)"/>
<path d="M55.4881 43.1677C55.3563 42.7466 55.0127 42.4256 54.5828 42.3267C52.2718 41.7948 49.9342 41.7948 47.6235 42.3267C47.1935 42.4256 46.8499 42.7467 46.7181 43.1677C46.1343 45.0317 46.1344 46.9152 46.7181 48.779C46.8499 49.2001 47.1935 49.5211 47.6235 49.6201C49.9344 50.152 52.2718 50.152 54.5828 49.6201C55.0127 49.5211 55.3563 49.2 55.4881 48.779C56.0719 46.9152 56.0719 45.0317 55.4881 43.1677Z" fill="url(#paint17_linear)"/>
<path d="M17.9598 52.9236C17.828 52.5025 17.4844 52.1815 17.0544 52.0825C14.7435 51.5506 12.4059 51.5506 10.0951 52.0825C9.66517 52.1815 9.32161 52.5026 9.18976 52.9236C8.60596 54.7876 8.60608 56.6711 9.18976 58.5349C9.32161 58.956 9.66517 59.277 10.0951 59.3759C12.406 59.9078 14.7435 59.9078 17.0544 59.3759C17.4844 59.277 17.828 58.9559 17.9598 58.5349C18.5435 56.671 18.5436 54.7876 17.9598 52.9236Z" fill="url(#paint18_linear)"/>
<path d="M30.4696 52.9236C30.3377 52.5025 29.9942 52.1815 29.5642 52.0825C27.2533 51.5506 24.9157 51.5506 22.6049 52.0825C22.1749 52.1815 21.8314 52.5026 21.6995 52.9236C21.1157 54.7876 21.1158 56.6711 21.6995 58.5349C21.8314 58.956 22.1749 59.277 22.6049 59.3759C24.9158 59.9078 27.2533 59.9078 29.5642 59.3759C29.9942 59.277 30.3377 58.9559 30.4696 58.5349C31.0532 56.671 31.0534 54.7876 30.4696 52.9236Z" fill="url(#paint19_linear)"/>
<path d="M42.9793 52.9236C42.8475 52.5025 42.5039 52.1815 42.074 52.0825C39.7631 51.5506 37.4255 51.5506 35.1147 52.0825C34.6847 52.1815 34.3411 52.5026 34.2093 52.9236C33.6255 54.7876 33.6256 56.6711 34.2093 58.5349C34.3411 58.956 34.6847 59.277 35.1147 59.3759C37.4256 59.9078 39.7631 59.9078 42.074 59.3759C42.5039 59.277 42.8475 58.9559 42.9793 58.5349C43.563 56.671 43.5631 54.7876 42.9793 52.9236Z" fill="url(#paint20_linear)"/>
<path d="M55.4881 52.9236C55.3563 52.5025 55.0127 52.1815 54.5828 52.0825C52.2718 51.5506 49.9342 51.5506 47.6235 52.0825C47.1935 52.1815 46.8499 52.5026 46.7181 52.9236C46.1343 54.7876 46.1344 56.6711 46.7181 58.5349C46.8499 58.956 47.1935 59.277 47.6235 59.3759C49.9344 59.9078 52.2718 59.9078 54.5828 59.3759C55.0127 59.277 55.3563 58.9559 55.4881 58.5349C56.0719 56.671 56.0719 54.7876 55.4881 52.9236Z" fill="url(#paint21_linear)"/>
<defs>
<linearGradient id="paint0_linear" x1="27.8515" y1="22.239" x2="51.7979" y2="82.8216" gradientUnits="userSpaceOnUse">
<stop stop-color="#EDF5FF"/>
<stop offset="1" stop-color="#D5E8FE"/>
</linearGradient>
<linearGradient id="paint1_linear" x1="19.1846" y1="31.7207" x2="11.5442" y2="24.0802" gradientUnits="userSpaceOnUse">
<stop stop-color="#EDF5FF"/>
<stop offset="1" stop-color="#D5E8FE"/>
</linearGradient>
<linearGradient id="paint2_linear" x1="53.7207" y1="31.7207" x2="46.0803" y2="24.0802" gradientUnits="userSpaceOnUse">
<stop stop-color="#EDF5FF"/>
<stop offset="1" stop-color="#D5E8FE"/>
</linearGradient>
<linearGradient id="paint3_linear" x1="32.3394" y1="27.495" x2="32.3394" y2="16.4281" gradientUnits="userSpaceOnUse">
<stop stop-color="#84D5F1" stop-opacity="0"/>
<stop offset="0.2708" stop-color="#4590AA" stop-opacity="0.271"/>
<stop offset="0.597" stop-color="#4595AF" stop-opacity="0.597"/>
<stop offset="0.9505" stop-color="#519EB9" stop-opacity="0.951"/>
<stop offset="1" stop-color="#6BABC0"/>
</linearGradient>
<linearGradient id="paint4_linear" x1="19.4537" y1="27.4101" x2="12.2435" y2="20.0465" gradientUnits="userSpaceOnUse">
<stop stop-color="#07485E" stop-opacity="0"/>
<stop offset="0.2708" stop-color="#074459" stop-opacity="0.271"/>
<stop offset="0.597" stop-color="#05394A" stop-opacity="0.597"/>
<stop offset="0.9505" stop-color="#032632" stop-opacity="0.951"/>
<stop offset="1" stop-color="#03232E"/>
</linearGradient>
<linearGradient id="paint5_linear" x1="54.9124" y1="28.232" x2="47.1653" y2="20.7917" gradientUnits="userSpaceOnUse">
<stop stop-color="#07485E" stop-opacity="0"/>
<stop offset="0.2708" stop-color="#074459" stop-opacity="0.271"/>
<stop offset="0.597" stop-color="#05394A" stop-opacity="0.597"/>
<stop offset="0.9505" stop-color="#032632" stop-opacity="0.951"/>
<stop offset="1" stop-color="#03232E"/>
</linearGradient>
<linearGradient id="paint6_linear" x1="29.6695" y1="6.5742" x2="35.5757" y2="24.5997" gradientUnits="userSpaceOnUse">
<stop stop-color="#D9E7F8"/>
<stop offset="1" stop-color="#E6F1FF"/>
</linearGradient>
<linearGradient id="paint7_linear" x1="53.7207" y1="22.5839" x2="46.0803" y2="14.9435" gradientUnits="userSpaceOnUse">
<stop stop-color="#ABC4D3"/>
<stop offset="1" stop-color="#C0D4E2"/>
</linearGradient>
<linearGradient id="paint8_linear" x1="13.2021" y1="22.7542" x2="16.9265" y2="22.7542" gradientUnits="userSpaceOnUse">
<stop stop-color="#FFDA2D"/>
<stop offset="1" stop-color="#FDBF00"/>
</linearGradient>
<linearGradient id="paint9_linear" x1="47.752" y1="22.7542" x2="51.4763" y2="22.7542" gradientUnits="userSpaceOnUse">
<stop stop-color="#FFDA2D"/>
<stop offset="1" stop-color="#FDBF00"/>
</linearGradient>
<linearGradient id="paint10_linear" x1="11.1293" y1="33.77" x2="16.1716" y2="38.8124" gradientUnits="userSpaceOnUse">
<stop stop-color="#90D1FF"/>
<stop offset="1" stop-color="#5992FB"/>
</linearGradient>
<linearGradient id="paint11_linear" x1="23.639" y1="33.77" x2="28.6814" y2="38.8124" gradientUnits="userSpaceOnUse">
<stop stop-color="#90D1FF"/>
<stop offset="1" stop-color="#5992FB"/>
</linearGradient>
<linearGradient id="paint12_linear" x1="36.1488" y1="33.77" x2="41.1911" y2="38.8124" gradientUnits="userSpaceOnUse">
<stop stop-color="#90D1FF"/>
<stop offset="1" stop-color="#5992FB"/>
</linearGradient>
<linearGradient id="paint13_linear" x1="48.6576" y1="33.77" x2="53.6999" y2="38.8124" gradientUnits="userSpaceOnUse">
<stop stop-color="#90D1FF"/>
<stop offset="1" stop-color="#5992FB"/>
</linearGradient>
<linearGradient id="paint14_linear" x1="11.1293" y1="43.5277" x2="16.1716" y2="48.5702" gradientUnits="userSpaceOnUse">
<stop stop-color="#90D0FF"/>
<stop offset="1" stop-color="#548CF9"/>
</linearGradient>
<linearGradient id="paint15_linear" x1="23.639" y1="43.5277" x2="28.6814" y2="48.5702" gradientUnits="userSpaceOnUse">
<stop stop-color="#90D0FF"/>
<stop offset="1" stop-color="#548CF9"/>
</linearGradient>
<linearGradient id="paint16_linear" x1="36.1488" y1="43.5277" x2="41.1911" y2="48.5702" gradientUnits="userSpaceOnUse">
<stop stop-color="#FFD322"/>
<stop offset="1" stop-color="#E4B413"/>
</linearGradient>
<linearGradient id="paint17_linear" x1="48.6576" y1="43.5277" x2="53.6999" y2="48.5702" gradientUnits="userSpaceOnUse">
<stop stop-color="#90D1FF"/>
<stop offset="1" stop-color="#568FFA"/>
</linearGradient>
<linearGradient id="paint18_linear" x1="11.1293" y1="53.2836" x2="16.1716" y2="58.3261" gradientUnits="userSpaceOnUse">
<stop stop-color="#90D0FF"/>
<stop offset="1" stop-color="#548CF9"/>
</linearGradient>
<linearGradient id="paint19_linear" x1="23.639" y1="53.2836" x2="28.6814" y2="58.326" gradientUnits="userSpaceOnUse">
<stop stop-color="#90D0FF"/>
<stop offset="1" stop-color="#548CF9"/>
</linearGradient>
<linearGradient id="paint20_linear" x1="36.1488" y1="53.2836" x2="41.1911" y2="58.326" gradientUnits="userSpaceOnUse">
<stop stop-color="#90D0FF"/>
<stop offset="1" stop-color="#548CF9"/>
</linearGradient>
<linearGradient id="paint21_linear" x1="48.6576" y1="53.2836" x2="53.6999" y2="58.3261" gradientUnits="userSpaceOnUse">
<stop stop-color="#90D1FF"/>
<stop offset="1" stop-color="#568FFA"/>
</linearGradient>
</defs>
</svg>
