<svg width="64" height="64" viewBox="0 0 64 64" fill="none" xmlns="http://www.w3.org/2000/svg">
<path d="M63.1664 57.3558C64.8888 59.295 63.6607 62.3667 61.0763 62.5882C53.6737 63.2227 43.8722 63.607 33.1194 63.607C21.2166 63.607 10.4804 63.1359 2.87371 62.3779C0.320866 62.1235 -0.903919 59.0737 0.813164 57.1675C0.826089 57.1532 0.839015 57.1388 0.85194 57.1245C8.49592 48.6317 19.5768 43.293 31.9035 43.293C44.0977 43.293 55.0642 48.5114 62.7022 56.8415C62.8583 57.0118 63.013 57.1832 63.1664 57.3558Z" fill="url(#paint0_linear)"/>
<path d="M62.7032 56.8409C55.0833 48.5306 44.1507 43.3177 31.9912 43.293V63.6048C32.3664 63.6058 32.7428 63.6062 33.1202 63.6062C43.8733 63.6062 53.6745 63.2219 61.0772 62.5875C63.6614 62.366 64.8897 59.2942 63.1672 57.355C63.0139 57.1823 62.8592 57.0109 62.7032 56.8409Z" fill="url(#paint1_linear)"/>
<path d="M31.9907 50.4415C34.9018 50.4415 37.2617 48.9786 37.2617 47.1739C37.2617 45.3692 34.9018 43.9062 31.9907 43.9062C29.0796 43.9062 26.7197 45.3692 26.7197 47.1739C26.7197 48.9786 29.0796 50.4415 31.9907 50.4415Z" fill="url(#paint2_linear)"/>
<path d="M20.5234 42.6465V45.1066C20.5234 45.5587 20.6228 46.004 20.8129 46.4034L24.1061 53.3229C24.5364 54.2271 25.5543 54.5511 26.3478 54.0367L31.9909 50.3779L20.5234 42.6465Z" fill="url(#paint3_linear)"/>
<path d="M43.4577 42.6465V45.1066C43.4577 45.5587 43.3583 46.004 43.1682 46.4034L39.875 53.3229C39.4447 54.2271 38.4268 54.5511 37.6333 54.0367L31.9902 50.3779L43.4577 42.6465Z" fill="url(#paint4_linear)"/>
<path d="M16.5074 31.6044C14.6339 31.6044 13.1152 30.0857 13.1152 28.2122V26.1949C13.1152 24.3214 14.6339 22.8027 16.5074 22.8027C18.3808 22.8027 19.8995 24.3214 19.8995 26.1949V28.2122C19.8995 30.0857 18.3808 31.6044 16.5074 31.6044Z" fill="url(#paint5_linear)"/>
<path d="M47.4732 31.6044C45.5997 31.6044 44.0811 30.0857 44.0811 28.2122V26.1949C44.0811 24.3214 45.5997 22.8027 47.4732 22.8027C49.3466 22.8027 50.8653 24.3214 50.8653 26.1949V28.2122C50.8653 30.0857 49.3466 31.6044 47.4732 31.6044Z" fill="url(#paint6_linear)"/>
<path d="M31.9906 48.0091C40.4663 48.0091 47.4388 41.3081 47.745 32.838C47.8762 29.2064 47.8762 25.5722 47.745 21.9407C47.4388 13.4705 40.4663 6.76953 31.9906 6.76953C23.5148 6.76953 16.5423 13.4706 16.2361 21.9407C16.1049 25.5722 16.1049 29.2064 16.2361 32.838C16.5423 41.3081 23.5148 48.0091 31.9906 48.0091Z" fill="url(#paint7_linear)"/>
<path d="M38.1151 39.5833C38.0893 38.9472 37.7131 38.439 37.1165 38.278C33.7741 37.3761 30.2074 37.3761 26.8651 38.278C26.2685 38.439 25.8923 38.9472 25.8664 39.5833C25.7665 42.0433 26.3538 44.0623 27.4408 45.7173C27.6612 46.0527 28.0675 46.3002 28.5143 46.375C30.8498 46.7663 33.1317 46.7663 35.4673 46.375C35.914 46.3002 36.3204 46.0527 36.5406 45.7173C37.6277 44.0623 38.215 42.0433 38.1151 39.5833Z" fill="url(#paint8_linear)"/>
<path d="M36.2894 43.7744C36.5269 44.1385 36.3576 44.7151 36.0013 44.7567C34.9808 44.8757 33.6297 44.9479 32.1474 44.9479C30.5066 44.9479 29.0266 44.8594 27.978 44.7173C27.6261 44.6694 27.4572 44.097 27.694 43.7392C27.6957 43.7365 27.6975 43.7338 27.6994 43.7312C28.7531 42.1369 30.2806 41.1348 31.9798 41.1348C33.6609 41.1348 35.1726 42.1143 36.2256 43.6781C36.2469 43.7098 36.2682 43.7421 36.2894 43.7744Z" fill="url(#paint9_linear)"/>
<path d="M45.5109 21.8628C45.465 21.8253 45.0819 21.4064 44.8922 21.2843C44.6724 20.9427 44.327 20.6931 43.9207 20.5997C40.9791 19.9225 38.0036 19.9225 35.062 20.5997C34.5146 20.7256 34.0774 21.1344 33.9095 21.6703C33.7979 22.0266 33.7052 22.3836 33.627 22.7409C33.1528 22.4421 32.5921 22.2682 31.9901 22.2682C31.6681 22.2682 31.3585 22.3194 31.067 22.4114L29.8899 21.2843C29.67 20.9427 29.3247 20.6933 28.9183 20.5997C25.9767 19.9225 23.0012 19.9225 20.0596 20.5997C19.5122 20.7256 19.075 21.1344 18.9071 21.6703C18.887 21.7345 18.8696 21.7987 18.8506 21.8628H16.2394C16.2384 21.8882 16.2367 21.9134 16.2358 21.9389C16.2357 21.9437 16.2356 21.9484 16.2353 21.9532C16.2226 22.3034 16.2122 22.6538 16.2021 23.0042C16.1935 23.3077 16.1857 23.6112 16.1788 23.9147C16.1788 23.9159 16.1788 23.917 16.1787 23.9181L18.365 25.8154C18.4149 26.8166 18.5951 27.817 18.9071 28.8131C19.0199 29.1733 19.2547 29.4755 19.5624 29.6735L37.0617 47.1727C43.0896 45.127 47.5023 39.5355 47.7445 32.8362C47.8758 29.2046 47.8758 25.5704 47.7445 21.9389C47.7436 21.9134 47.7419 21.8882 47.7407 21.8628H45.5109Z" fill="url(#paint10_linear)"/>
<path d="M32.9629 35.4259H31.0188C29.4609 35.4259 28.2471 34.2773 28.4138 32.9607L29.4301 24.9297H34.5515L35.5678 32.9607C35.7346 34.2773 34.5209 35.4259 32.9629 35.4259Z" fill="url(#paint11_linear)"/>
<path d="M16.2812 27.2127L16.5731 22.8585C16.7293 20.5282 18.0669 18.4137 20.0736 17.2755C21.0685 16.7112 22.1793 16.4149 23.2956 16.4149H31.8131C34.9079 16.4149 37.8467 15.1965 39.9514 13.0597L42.0028 16.3395C42.4942 17.1251 43.1836 17.7801 44.0013 18.2353C45.676 19.1677 46.7895 20.9252 46.9091 22.8592L47.1011 25.9637C47.137 26.5447 47.621 27.0177 48.1818 27.0177C48.6487 27.0177 49.0325 26.6862 49.1114 26.2158L50.5027 17.9241C50.9015 15.5474 51.0004 13.1586 50.8064 10.8108C50.5169 7.30709 47.0756 4.73215 43.6024 5.34003C39.1548 1.31982 33.067 -0.373918 27.2096 0.720106L22.1172 1.6712C17.5006 2.53344 13.9596 6.47283 13.8177 11.0927L13.6663 16.0186C13.5978 18.2477 13.7064 20.5079 13.9961 22.7786L14.5852 27.3957C14.6378 27.8075 14.9644 28.1032 15.368 28.1032C15.8393 28.1032 16.2482 27.7036 16.2812 27.2127Z" fill="url(#paint12_linear)"/>
<path d="M43.6025 5.3399C39.1548 1.31982 33.067 -0.373917 27.2096 0.720107L22.1172 1.6712C17.5006 2.53344 13.9596 6.47283 13.8177 11.0927L13.6663 16.0186C13.5978 18.2477 13.7064 20.5079 13.9961 22.7786L14.5852 27.3957C14.6378 27.8075 14.9644 28.1032 15.368 28.1032C15.8393 28.1032 16.2483 27.7038 16.2812 27.2127L16.5731 22.8585C16.7293 20.5282 18.0669 18.4137 20.0736 17.2755C21.0685 16.7112 22.1793 16.4149 23.2956 16.4149H31.8131C34.9079 16.4149 37.8467 15.1965 39.9514 13.0597C39.9514 13.0596 38.6448 7.6493 43.6025 5.3399Z" fill="url(#paint13_linear)"/>
<path d="M19.4338 23.9186H14.2679C13.7003 23.9186 13.2402 23.4585 13.2402 22.8909C13.2402 22.3233 13.7003 21.8633 14.2679 21.8633H19.4338V23.9186Z" fill="url(#paint14_linear)"/>
<path d="M44.5488 23.9186H49.7148C50.2824 23.9186 50.7424 23.4585 50.7424 22.8909C50.7424 22.3233 50.2824 21.8633 49.7148 21.8633H44.5488V23.9186Z" fill="url(#paint15_linear)"/>
<path d="M30.5437 24.5122C30.8327 24.0116 31.3722 23.6739 31.9918 23.6739C32.6113 23.6739 33.1508 24.0116 33.4398 24.5122H34.9552C34.5914 23.2173 33.4029 22.2676 31.9918 22.2676C30.5806 22.2676 29.3921 23.2173 29.0283 24.5122H30.5437Z" fill="url(#paint16_linear)"/>
<path d="M27.4993 24.6835C27.4984 24.6857 27.4975 24.6879 27.4965 24.69C27.0134 25.8604 25.7124 27.2775 22.2587 27.3816C21.7333 27.3974 21.2946 26.9845 21.2788 26.459C21.2631 25.9335 21.6761 25.4949 22.2014 25.4791C23.5457 25.4385 25.2504 25.1426 25.7372 23.9638C25.9377 23.4779 26.4942 23.2467 26.98 23.4473C27.4637 23.6468 27.6951 24.1992 27.4993 24.6835Z" fill="url(#paint17_linear)"/>
<path d="M36.4866 24.6835C36.4874 24.6857 36.4883 24.6879 36.4893 24.69C36.9725 25.8604 38.2734 27.2775 41.7272 27.3816C42.2526 27.3974 42.6913 26.9845 42.7071 26.459C42.7228 25.9335 42.3098 25.4949 41.7845 25.4791C40.4401 25.4385 38.7355 25.1426 38.2487 23.9638C38.0482 23.4779 37.4916 23.2467 37.0058 23.4473C36.5221 23.6468 36.2908 24.1992 36.4866 24.6835Z" fill="url(#paint18_linear)"/>
<path d="M29.2656 28.297C29.122 28.7555 28.7479 29.1051 28.2796 29.2129C25.763 29.7922 23.2176 29.7922 20.701 29.2129C20.2327 29.1051 19.8587 28.7555 19.715 28.297C19.0794 26.2673 19.0793 24.2163 19.715 22.1863C19.8586 21.7278 20.2327 21.3782 20.701 21.2704C23.2175 20.6911 25.763 20.6911 28.2796 21.2704C28.7479 21.3782 29.1219 21.7278 29.2656 22.1863C29.9013 24.2163 29.9012 26.2674 29.2656 28.297Z" fill="url(#paint19_linear)"/>
<path d="M30.0726 21.6703C29.9047 21.1344 29.4675 20.7256 28.9201 20.5997C25.9785 19.9225 23.003 19.9225 20.0614 20.5997C19.514 20.7256 19.0768 21.1344 18.9089 21.6703C18.1657 24.0431 18.1659 26.4406 18.9089 28.8131C19.0768 29.3491 19.514 29.7578 20.0614 29.8838C23.003 30.5609 25.9785 30.5609 28.9201 29.8838C29.4675 29.7578 29.9047 29.3491 30.0726 28.8131C30.8156 26.4406 30.8156 24.0431 30.0726 21.6703ZM28.54 27.8325C28.4183 28.2214 28.101 28.5178 27.704 28.6092C25.57 29.1004 23.4115 29.1004 21.2775 28.6092C20.8805 28.5178 20.5632 28.2213 20.4415 27.8325C19.9025 26.1114 19.9024 24.3721 20.4415 22.6508C20.5632 22.2619 20.8805 21.9655 21.2775 21.8741C23.4115 21.383 25.57 21.383 27.704 21.8741C28.101 21.9655 28.4183 22.262 28.54 22.6508C29.0791 24.3723 29.0791 26.1114 28.54 27.8325Z" fill="url(#paint20_linear)"/>
<path d="M44.2685 28.297C44.125 28.7555 43.7509 29.1051 43.2825 29.2129C40.766 29.7922 38.2205 29.7922 35.7039 29.2129C35.2356 29.1051 34.8616 28.7555 34.718 28.297C34.0824 26.2673 34.0822 24.2163 34.718 22.1863C34.8615 21.7278 35.2356 21.3782 35.7039 21.2704C38.2204 20.6911 40.766 20.6911 43.2825 21.2704C43.7509 21.3782 44.1248 21.7278 44.2685 22.1863C44.9042 24.2163 44.9042 26.2674 44.2685 28.297Z" fill="url(#paint21_linear)"/>
<path d="M45.0755 21.6703C44.9076 21.1344 44.4704 20.7256 43.923 20.5997C40.9814 19.9225 38.0059 19.9225 35.0643 20.5997C34.5169 20.7256 34.0797 21.1344 33.9118 21.6703C33.1687 24.0431 33.1688 26.4406 33.9118 28.8131C34.0797 29.3491 34.5169 29.7578 35.0643 29.8838C38.0059 30.5609 40.9814 30.5609 43.923 29.8838C44.4704 29.7578 44.9076 29.3491 45.0755 28.8131C45.8186 26.4406 45.8187 24.0431 45.0755 21.6703ZM43.5431 27.8325C43.4213 28.2214 43.1041 28.5178 42.707 28.6092C40.5731 29.1004 38.4145 29.1004 36.2806 28.6092C35.8835 28.5178 35.5663 28.2213 35.4445 27.8325C34.9056 26.1114 34.9054 24.3721 35.4445 22.6508C35.5663 22.2619 35.8835 21.9655 36.2806 21.8741C38.4145 21.383 40.5731 21.383 42.707 21.8741C43.1041 21.9655 43.4213 22.262 43.5431 22.6508C44.0822 24.3723 44.082 26.1114 43.5431 27.8325Z" fill="url(#paint22_linear)"/>
<path d="M22.4726 35.9602L7.86194 30.415C6.0397 29.7161 3.99584 30.6269 3.29698 32.4491L2.41516 34.7486C0.609734 39.4563 1.01607 43.9318 5.72371 45.7371C8.1965 46.6854 10.9085 45.8858 12.5027 43.9466L18.5242 46.2558L22.4726 35.9602Z" fill="url(#paint23_linear)"/>
<path d="M13.4698 42.286C13.6569 41.7981 13.6896 41.2631 13.5562 40.7579C13.1676 39.2854 12.0497 38.0299 10.4496 37.5499C8.30786 36.9074 5.97262 37.9535 5.02567 39.9791C3.9152 42.3547 5.02115 45.121 7.37685 46.1148C9.96597 46.3299 12.4926 44.8338 13.4698 42.286Z" fill="url(#paint24_linear)"/>
<path d="M61.0752 62.5882C53.6735 63.2221 43.8712 63.6064 33.1188 63.6064C32.2655 63.6064 31.4176 63.6037 30.5779 63.5997L14.3008 47.1731C19.6757 44.654 25.5739 43.293 31.9029 43.293C44.0976 43.293 55.0639 48.5111 62.7015 56.8411C62.8582 57.0116 63.0123 57.1832 63.1663 57.355C64.8879 59.2948 63.6597 62.366 61.0752 62.5882Z" fill="url(#paint25_linear)"/>
<path d="M55.9903 47.2082L21.0231 33.8151C19.5768 33.2671 17.9601 33.9964 17.4121 35.4441L13.9634 44.5593C13.4154 46.0056 14.1461 47.6237 15.5924 48.1689L19.9816 49.8593L54.4377 63.06C56.8641 62.9237 59.1323 62.7656 61.2112 62.5884C61.9271 62.5269 62.5389 62.2469 63.0126 61.8327C63.5799 61.3366 63.8997 60.6179 63.9599 59.8667C63.9929 59.4555 64.0052 59.0453 63.9974 58.6367C63.9033 53.7171 60.888 49.0947 55.9903 47.2082Z" fill="url(#paint26_linear)"/>
<path d="M7.28506 28.1008C6.50689 28.1009 5.7291 27.8172 5.10868 27.2497C5.10793 27.249 5.10705 27.2481 5.10617 27.2473C5.03138 27.1807 4.91994 27.1817 4.84565 27.2492C3.60468 28.3844 1.73325 28.3844 0.492273 27.2487C-0.125013 26.684 -0.167554 25.7255 0.397402 25.1082C0.962234 24.4909 1.92048 24.4481 2.53801 25.0133C2.61268 25.0817 2.72575 25.082 2.80054 25.0132C4.04139 23.8784 5.9127 23.8784 7.15342 25.0132C7.15442 25.0141 7.1553 25.0148 7.15618 25.0157C7.23097 25.082 7.34228 25.0812 7.41632 25.0136C7.45811 24.9754 7.50203 24.9396 7.54771 24.9063C8.22435 24.414 9.17231 24.5633 9.6646 25.2401C10.1297 25.8796 10.0221 26.7607 9.43784 27.271C8.82131 27.8242 8.05293 28.1008 7.28506 28.1008Z" fill="url(#paint27_linear)"/>
<path d="M9.34453 22.0799C7.85132 22.08 6.54484 21.057 6.20903 19.5611C6.2084 19.5581 6.20765 19.5554 6.20715 19.5526C6.18506 19.4536 6.09333 19.3905 5.99218 19.4019C4.32278 19.6202 2.79206 18.5443 2.42788 16.9024C2.24667 16.0856 2.76194 15.2763 3.57888 15.0951C4.39519 14.9132 5.20486 15.4291 5.38606 16.2461C5.40802 16.3453 5.50026 16.4089 5.60115 16.3972C7.26578 16.1784 8.79626 17.2514 9.16357 18.8888C9.1642 18.8914 9.1647 18.8939 9.16533 18.8965C9.18729 18.9952 9.27902 19.0599 9.37979 19.0473C10.2023 18.9398 10.9586 19.5132 11.076 20.3353C11.1944 21.1636 10.6193 21.931 9.79089 22.0494C9.78462 22.0502 9.77722 22.0512 9.77082 22.0521C9.62776 22.0707 9.4852 22.0799 9.34453 22.0799Z" fill="url(#paint28_linear)"/>
<path d="M53.5348 37.9035C54.313 37.9036 55.0908 37.6199 55.7112 37.0524C55.7121 37.0517 55.7128 37.0508 55.7137 37.0501C55.7885 36.9834 55.9 36.9844 55.9742 37.0519C57.2152 38.1871 59.0866 38.1871 60.3276 37.0514C60.9449 36.4867 60.9874 35.5282 60.4225 34.9109C59.8577 34.2937 58.8994 34.2509 58.2819 34.8161C58.2072 34.8845 58.0941 34.8847 58.0194 34.816C56.7785 33.6811 54.9072 33.6811 53.6665 34.816C53.6655 34.8168 53.6646 34.8176 53.6637 34.8185C53.5889 34.8847 53.4776 34.884 53.4036 34.8163C53.3618 34.7782 53.3179 34.7423 53.2722 34.709C52.5955 34.2167 51.6476 34.3661 51.1553 35.0428C50.6902 35.6823 50.7978 36.5634 51.3821 37.0738C51.9985 37.6269 52.7668 37.9035 53.5348 37.9035Z" fill="url(#paint29_linear)"/>
<path d="M53.7938 31.8826C55.287 31.8827 56.5935 30.8597 56.9293 29.3639C56.9299 29.3609 56.9307 29.3581 56.9312 29.3553C56.9533 29.2563 57.045 29.1932 57.1462 29.2046C58.8156 29.423 60.3463 28.347 60.7105 26.7051C60.8917 25.8883 60.3764 25.079 59.5595 24.8978C58.7431 24.716 57.9335 25.2319 57.7523 26.0488C57.7303 26.1481 57.6381 26.2117 57.5372 26.1999C55.8726 25.9812 54.3421 27.0541 53.9748 28.6915C53.9742 28.6941 53.9736 28.6966 53.973 28.6994C53.9511 28.798 53.8593 28.8628 53.7586 28.8501C52.9361 28.7427 52.1798 29.3161 52.0623 30.1381C51.944 30.9665 52.5191 31.7339 53.3474 31.8522C53.3537 31.8531 53.3611 31.8541 53.3675 31.855C53.5107 31.8734 53.6533 31.8826 53.7938 31.8826Z" fill="url(#paint30_linear)"/>
<path d="M59.2279 47.0071C59.3366 47.0071 59.4469 46.9954 59.5575 46.9708C60.3744 46.7896 60.8898 45.9804 60.7085 45.1635C60.3442 43.5216 58.8116 42.4463 57.1442 42.6643C57.0428 42.6764 56.9512 42.6124 56.9292 42.5136C56.9286 42.5105 56.928 42.5077 56.9273 42.5048C56.5598 40.8679 55.0297 39.7982 53.3654 40.0139C53.359 40.0148 53.3528 40.0157 53.3465 40.0166C52.5181 40.1349 51.942 40.9024 52.0603 41.7308C52.1779 42.5537 52.9365 43.1258 53.7582 43.0185C53.8591 43.0047 53.9491 43.0715 53.9709 43.1695C53.9715 43.1723 53.9722 43.1751 53.9728 43.1779C54.3404 44.815 55.8695 45.8871 57.5352 45.6689C57.6346 45.657 57.7282 45.7207 57.7502 45.8199C57.9069 46.5262 58.5332 47.0071 59.2279 47.0071Z" fill="url(#paint31_linear)"/>
<defs>
<linearGradient id="paint0_linear" x1="31.9907" y1="53.2224" x2="31.9907" y2="63.971" gradientUnits="userSpaceOnUse">
<stop stop-color="#EDF5FF"/>
<stop offset="1" stop-color="#D5E8FE"/>
</linearGradient>
<linearGradient id="paint1_linear" x1="47.9378" y1="61.053" x2="46.302" y2="45.9221" gradientUnits="userSpaceOnUse">
<stop stop-color="#07485E" stop-opacity="0"/>
<stop offset="0.2708" stop-color="#074459" stop-opacity="0.271"/>
<stop offset="0.597" stop-color="#05394A" stop-opacity="0.597"/>
<stop offset="0.9505" stop-color="#032632" stop-opacity="0.951"/>
<stop offset="1" stop-color="#03232E"/>
</linearGradient>
<linearGradient id="paint2_linear" x1="31.9907" y1="45.67" x2="31.9907" y2="49.2057" gradientUnits="userSpaceOnUse">
<stop stop-color="#FCE9CB"/>
<stop offset="1" stop-color="#FFBD95"/>
</linearGradient>
<linearGradient id="paint3_linear" x1="25.346" y1="47.4088" x2="27.772" y2="51.4044" gradientUnits="userSpaceOnUse">
<stop stop-color="#EDF5FF"/>
<stop offset="1" stop-color="#D5E8FE"/>
</linearGradient>
<linearGradient id="paint4_linear" x1="37.6162" y1="46.4157" x2="42.1996" y2="50.5202" gradientUnits="userSpaceOnUse">
<stop stop-color="#EDF5FF"/>
<stop offset="1" stop-color="#D5E8FE"/>
</linearGradient>
<linearGradient id="paint5_linear" x1="15.7" y1="26.3961" x2="18.9277" y2="29.6239" gradientUnits="userSpaceOnUse">
<stop stop-color="#FCE9CB"/>
<stop offset="1" stop-color="#FFBD95"/>
</linearGradient>
<linearGradient id="paint6_linear" x1="46.6658" y1="26.3961" x2="49.8935" y2="29.6239" gradientUnits="userSpaceOnUse">
<stop stop-color="#FCE9CB"/>
<stop offset="1" stop-color="#FFBD95"/>
</linearGradient>
<linearGradient id="paint7_linear" x1="24.363" y1="15.3429" x2="38.0525" y2="36.963" gradientUnits="userSpaceOnUse">
<stop stop-color="#FCE9CB"/>
<stop offset="1" stop-color="#FFBD95"/>
</linearGradient>
<linearGradient id="paint8_linear" x1="33.2262" y1="45.5707" x2="31.2496" y2="37.4602" gradientUnits="userSpaceOnUse">
<stop stop-color="#FF637B"/>
<stop offset="1" stop-color="#E63950"/>
</linearGradient>
<linearGradient id="paint9_linear" x1="31.9918" y1="41.5663" x2="31.9918" y2="45.065" gradientUnits="userSpaceOnUse">
<stop stop-color="#FF9690"/>
<stop offset="1" stop-color="#F9545B"/>
</linearGradient>
<linearGradient id="paint10_linear" x1="34.4752" y1="40.7381" x2="29.8091" y2="7.63137" gradientUnits="userSpaceOnUse">
<stop stop-color="#FAA68E" stop-opacity="0"/>
<stop offset="1" stop-color="#C9766E"/>
</linearGradient>
<linearGradient id="paint11_linear" x1="31.9909" y1="26.7305" x2="31.9909" y2="46.8885" gradientUnits="userSpaceOnUse">
<stop stop-color="#FAA68E" stop-opacity="0"/>
<stop offset="1" stop-color="#C9766E"/>
</linearGradient>
<linearGradient id="paint12_linear" x1="27.8668" y1="14.0154" x2="40.1401" y2="24.4635" gradientUnits="userSpaceOnUse">
<stop stop-color="#8A7889"/>
<stop offset="1" stop-color="#6E566E"/>
</linearGradient>
<linearGradient id="paint13_linear" x1="24.7879" y1="9.14702" x2="31.9631" y2="21.2946" gradientUnits="userSpaceOnUse">
<stop stop-color="#6E566E" stop-opacity="0"/>
<stop offset="0.2944" stop-color="#674D66" stop-opacity="0.294"/>
<stop offset="1" stop-color="#593B56"/>
</linearGradient>
<linearGradient id="paint14_linear" x1="16.3371" y1="22.1996" x2="16.3371" y2="23.2486" gradientUnits="userSpaceOnUse">
<stop stop-color="#8A7889"/>
<stop offset="1" stop-color="#6E566E"/>
</linearGradient>
<linearGradient id="paint15_linear" x1="47.6457" y1="22.1996" x2="47.6457" y2="23.2486" gradientUnits="userSpaceOnUse">
<stop stop-color="#8A7889"/>
<stop offset="1" stop-color="#6E566E"/>
</linearGradient>
<linearGradient id="paint16_linear" x1="31.9918" y1="22.6349" x2="31.9918" y2="23.7806" gradientUnits="userSpaceOnUse">
<stop stop-color="#8A7889"/>
<stop offset="1" stop-color="#6E566E"/>
</linearGradient>
<linearGradient id="paint17_linear" x1="23.7457" y1="24.5307" x2="25.4254" y2="26.5961" gradientUnits="userSpaceOnUse">
<stop stop-color="#8A7889"/>
<stop offset="1" stop-color="#6E566E"/>
</linearGradient>
<linearGradient id="paint18_linear" x1="40.2396" y1="24.5271" x2="38.56" y2="26.5926" gradientUnits="userSpaceOnUse">
<stop stop-color="#8A7889"/>
<stop offset="1" stop-color="#6E566E"/>
</linearGradient>
<linearGradient id="paint19_linear" x1="25.5515" y1="28.1067" x2="22.7741" y2="20.6078" gradientUnits="userSpaceOnUse">
<stop stop-color="white" stop-opacity="0"/>
<stop offset="1" stop-color="white"/>
</linearGradient>
<linearGradient id="paint20_linear" x1="21.3776" y1="22.1288" x2="27.7963" y2="28.5473" gradientUnits="userSpaceOnUse">
<stop stop-color="#8A7889"/>
<stop offset="1" stop-color="#6E566E"/>
</linearGradient>
<linearGradient id="paint21_linear" x1="40.5545" y1="28.1067" x2="37.777" y2="20.6078" gradientUnits="userSpaceOnUse">
<stop stop-color="white" stop-opacity="0"/>
<stop offset="1" stop-color="white"/>
</linearGradient>
<linearGradient id="paint22_linear" x1="36.3807" y1="22.1288" x2="42.7993" y2="28.5473" gradientUnits="userSpaceOnUse">
<stop stop-color="#8A7889"/>
<stop offset="1" stop-color="#6E566E"/>
</linearGradient>
<linearGradient id="paint23_linear" x1="16.5346" y1="31.6033" x2="5.83046" y2="46.1873" gradientUnits="userSpaceOnUse">
<stop stop-color="#FCE9CB"/>
<stop offset="1" stop-color="#FFBD95"/>
</linearGradient>
<linearGradient id="paint24_linear" x1="7.93861" y1="42.5045" x2="16.0635" y2="35.3982" gradientUnits="userSpaceOnUse">
<stop stop-color="#FAA68E" stop-opacity="0"/>
<stop offset="1" stop-color="#C9766E"/>
</linearGradient>
<linearGradient id="paint25_linear" x1="37.6366" y1="59.2103" x2="39.8176" y2="50.8952" gradientUnits="userSpaceOnUse">
<stop stop-color="#07485E" stop-opacity="0"/>
<stop offset="0.2708" stop-color="#074459" stop-opacity="0.271"/>
<stop offset="0.597" stop-color="#05394A" stop-opacity="0.597"/>
<stop offset="0.9505" stop-color="#032632" stop-opacity="0.951"/>
<stop offset="1" stop-color="#03232E"/>
</linearGradient>
<linearGradient id="paint26_linear" x1="41.5318" y1="45.8333" x2="37.715" y2="54.9662" gradientUnits="userSpaceOnUse">
<stop stop-color="#EDF5FF"/>
<stop offset="1" stop-color="#D5E8FE"/>
</linearGradient>
<linearGradient id="paint27_linear" x1="1.75797" y1="23.4639" x2="8.19549" y2="28.8003" gradientUnits="userSpaceOnUse">
<stop stop-color="#FFDA2D"/>
<stop offset="1" stop-color="#FDBF00"/>
</linearGradient>
<linearGradient id="paint28_linear" x1="5.64323" y1="14.5121" x2="7.85234" y2="22.5773" gradientUnits="userSpaceOnUse">
<stop stop-color="#FFDA2D"/>
<stop offset="1" stop-color="#FDBF00"/>
</linearGradient>
<linearGradient id="paint29_linear" x1="59.0618" y1="33.2668" x2="52.6244" y2="38.603" gradientUnits="userSpaceOnUse">
<stop stop-color="#FFDA2D"/>
<stop offset="1" stop-color="#FDBF00"/>
</linearGradient>
<linearGradient id="paint30_linear" x1="57.489" y1="24.3085" x2="55.2798" y2="32.3738" gradientUnits="userSpaceOnUse">
<stop stop-color="#FFDA2D"/>
<stop offset="1" stop-color="#FDBF00"/>
</linearGradient>
<linearGradient id="paint31_linear" x1="57.5434" y1="47.5916" x2="55.3344" y2="39.5267" gradientUnits="userSpaceOnUse">
<stop stop-color="#FFDA2D"/>
<stop offset="1" stop-color="#FDBF00"/>
</linearGradient>
</defs>
</svg>
